
        <svg xmlns="http://www.w3.org/2000/svg" xmlns:xlink="http://www.w3.org/1999/xlink" version="1.1" width="2179.2099902902323" 
        height="3173.2598024715367" viewBox="0 0 2179.2099902902323 3173.2598024715367">
			<rect fill="#111111" width="2179.2099902902323" height="3173.2598024715367"/>
			<g transform="scale(8.66299012357682) translate(10, 10)">
				<defs id="SvgjsDefs1015"></defs><g id="SvgjsG1016" featureKey="symbolFeature-0" transform="matrix(0.38817795494225377,0,0,0.38817795494225377,17.26477101356491,-11.143033170161424)" fill="#1891ac"><g xmlns="http://www.w3.org/2000/svg"><g><g><g><g><path d="M306.783,79.943c0.573,0.186-2.015,10.084-7.249,28.035c-0.88,2.991-1.825,6.206-2.835,9.638       c-0.949,3.455-1.955,7.128-3.262,10.935c-1.993,3.585-1.137,8.322-3.676,12.186c-1.706,4.13-2.827,8.67-4.071,13.387       c-0.616,2.36-1.499,4.687-2.345,7.078c-0.429,1.216-0.819,2.361-1.214,3.694c-0.546,1.801-1.049,3.648-1.524,5.716       l-0.026,0.177c-1.72,0.367-3.886,0.439-5.986,0.372c-0.308-0.008-0.414-0.019-0.595-0.031l-0.501-0.042l-1.007-0.111       c-0.671-0.092-1.347-0.185-2.025-0.278c-2.713-0.383-5.473-0.71-8.281,0.248c-5.653,0.411-11.488,0.285-17.506,0.177       c-6.014-1.193-12.211-0.031-18.577,0.165c-6.366-1.44-12.905-0.829-19.606,0.151c-0.832-0.245-1.666-0.454-2.502-0.63       c-0.514-0.088-0.6-0.167-0.843-0.239c-0.221-0.071-0.456-0.134-0.701-0.189c-0.981-0.22-2.112-0.313-3.074-0.288       c-1.935,0.049-3.148,0.568-1.483,1.471l0.146,0.062c0.965,0.66,1.447,1.224,2.4,2.006c0.457,0.377,0.997,0.783,1.561,1.129       l0.44,0.257l1.151,0.737c0.773,0.484,1.562,0.953,2.366,1.402c6.004,4.186,12.267,8.268,18.226,13.006       c6.93,3.398,13.17,7.984,18.894,13.506c3.602,1.739,6.942,3.895,10.152,6.286c1.605,1.195,3.178,2.449,4.733,3.738       c0.773,0.651,1.548,1.304,2.324,1.958c1.4,1.121,2.805,2.244,4.212,3.37l1.522,1.215c-0.608,1.653-1.165,3.266-1.697,4.886       l-0.723,2.255l-0.412,1.406c-0.533,1.882-1.008,3.79-1.502,5.7c-0.988,3.818-2.051,7.641-3.801,11.267       c-2.683,7.923-4.933,16.111-7.818,24.199c-1.609,3.992-3.243,8.003-4.661,12.111c-0.709,2.054-1.365,4.132-1.937,6.244       c-0.286,1.057-0.551,2.121-0.791,3.195l-0.341,1.619l-0.156,0.814l-0.074,0.409c-0.01,0.061-0.03,0.155-0.03,0.188l0.018,0.042       c-0.043,0.494-0.011,0.804,0.025,0.991c0.033,0.197,0.071,0.272-0.046,0.562c0.181-0.104,0.184,0.036,0.426,0.188       c0.5-0.827,0.574-1.178,0.57-1.343l-0.006-0.053c0.014-0.027-0.097,0.038,0.223-0.209l1.342-1.037       c0.901-0.683,1.817-1.35,2.744-2.002c3.709-2.61,7.603-5.002,11.534-7.382c7.247-5.595,15.333-10.183,22.359-16.349       c3.83-2.651,7.509-5.539,11.231-8.395c1.861-1.428,3.733-2.848,5.643-4.226l3.307-2.334c1.816-1.279,3.627-2.529,5.398-3.721       l0.013-0.009c1.742,1.341,3.483,2.681,5.223,4.019c1.03,0.785,1.268,0.99,1.774,1.391l1.384,1.099       c1.848,1.461,3.705,2.901,5.582,4.307c3.756,2.81,7.594,5.475,11.61,7.864c8.086,4.716,14.745,11.258,22.356,16.354       c3.284,3.265,7.032,5.858,10.828,8.349l2.85,1.857l1.42,0.931c0.32,0.217,0.265,0.161,0.326,0.191l0.122,0.048       c0.319,0.131,0.501,0.236,0.854,0.648c0.36,0.205,0.796,0.628,1.452,1.228c0.015-0.25-0.01-0.658-0.183-1.248       c-0.165-0.569-0.478-1.319-0.866-1.722c-0.722-2.014-1.441-4.021-2.159-6.022c-0.729-2.062-1.442-4.121-2.129-6.183       c-1.372-4.123-2.635-8.256-3.68-12.431c-4.718-7.492-4.772-16.396-7.811-24.204c-0.825-3.923-2.064-7.684-3.384-11.39       c-0.668-1.851-1.334-3.695-1.998-5.532l-0.489-1.38l-0.772-2.287c-0.539-1.653-1.077-3.303-1.614-4.95l1.691-1.192       c1.397-1.073,2.925-2.206,4.307-3.208c0.819-0.595,1.648-1.172,2.483-1.739c1.669-1.133,3.36-2.222,5.037-3.317       c3.354-2.192,6.646-4.413,9.58-7.075c6.486-4.469,12.246-9.72,18.896-13.507c5.533-5.323,12.738-8.104,18.228-13.006       c1.654-1.198,3.292-2.385,4.913-3.559c0.86-0.609,1.743-1.2,2.994-1.963l0.124-0.053c0.698-0.41,0.464-0.63-0.095-0.728       c-0.568-0.098-1.462-0.074-2.324,0.005c-0.872,0.079-1.715,0.212-2.417,0.333l-0.509,0.087       c-0.183,0.027-0.215,0.053-0.748,0.077c-0.838,0.047-1.673,0.082-2.506,0.098c-6.699-0.17-13.235,0.978-19.603-0.152       c-6.367-0.125-12.564-0.855-18.58-0.165c-6.016,0.259-11.857-2.428-17.504-0.177c-2.807,0.204-5.568-0.215-8.282-0.503       c-0.679-0.072-1.354-0.136-2.026-0.18l-1.007-0.049l-0.502-0.01h-0.566c-1.887,0.017-3.744,0.161-5.971,0.527l-0.067-0.117       c-0.865-1.552-1.658-3.479-2.341-5.436l-0.332-0.978l-0.275-0.922c-0.174-0.617-0.327-1.236-0.469-1.856       c-0.566-2.481-0.945-4.971-1.666-7.296c-1.417-4.66-2.775-9.126-4.071-13.388c-5.813-19.191-10.282-34.319-13.19-44.685       c-2.909-10.366-4.258-15.969-3.827-16.108c0.479-0.154,3.12,6.447,7.604,18.851c4.483,12.403,10.811,30.608,18.661,53.659       c0.785,2.305,1.848,4.574,2.795,6.932c0.236,0.59,0.466,1.185,0.682,1.788l0.313,0.91l0.269,0.86       c0.125,0.497,0.173,1.032,0.172,1.866l0.015,0.045c0.611-0.002,1.258-0.061,1.847-0.135c1.303-0.08,2.618-0.16,3.944-0.24       c2.713-0.144,5.474-0.202,8.282,0.131c5.646-1.572,11.487-0.308,17.503-0.239c6.017-0.088,12.213,0.404,18.577-0.231       c6.365-0.917,12.905,0.427,19.604-0.221c0.832,0.118,1.668,0.217,2.506,0.298c0.307,0.041,1.104,0.077,1.754,0.108l1.994,0.083       c2.644,0.093,5.241,0.121,7.953,0.091c5.412-0.06,11.315-0.349,18.623-0.797l-0.124,0.109       c-3.147,1.988-5.748,3.741-8.174,5.465c-2.421,1.72-4.667,3.411-6.961,5.17c-2.345,1.81-4.703,3.63-7.072,5.459       c-0.971,0.746-1.943,1.494-2.918,2.244c-0.723,0.554-1.454,1.101-2.198,1.633c-6.775,3.125-12.232,8.322-18.053,13.248       c-5.854,4.888-12.564,8.824-18.737,13.726c-3.271,2.196-6.434,4.597-9.62,7.021c-1.598,1.205-3.202,2.415-4.813,3.628       l-2.45,1.784c-0.243,0.168-0.338,0.216-0.546,0.329l-0.068,0.164c0.142,0.189,0.263,0.339,0.367,0.459l0.075,0.085       c0.029,0.045,0.019-0.032,0.137,0.284l0.524,1.368c0.693,1.828,1.355,3.673,1.979,5.539c1.245,3.73,2.335,7.541,3.2,11.452       c3.04,7.808,5.318,15.984,7.984,24.146c1.605,3.991,2.93,8.104,4.212,12.256c0.639,2.078,1.278,4.161,1.921,6.251l0.992,3.13       c0.367,1.098,0.733,2.197,1.102,3.299c1.752,5.051,3.303,10.21,4.696,14.999c1.406,4.83,2.655,9.287,4.155,14.005       c-4.505-3.341-8.497-6.083-12.881-8.596c-3.361-2.392-6.795-4.886-10.212-7.392c-2.141-1.59-4.288-3.183-6.44-4.78       c-3.632-2.715-7.288-5.434-11.072-8.014c-7.275-5.558-14.608-11.176-22.389-16.31c-3.296-3.378-6.979-6.255-10.839-8.921       c-1.931-1.334-3.903-2.614-5.895-3.88l-1.496-0.946c-0.452-0.28-1.181-0.762-1.101-0.653c-0.194-0.039-0.345-0.049-0.457-0.035       v0.001l-0.265,0.364c0.16-0.094-0.564,0.454-0.977,0.772l-1.406,1.069c-1.879,1.418-3.773,2.809-5.677,4.179       c-3.807,2.741-7.649,5.403-11.479,8.055c-7.43,5.614-14.938,10.993-22.393,16.305c-3.561,2.886-7.341,5.436-11.091,7.988       l-2.803,1.922l-1.39,0.971l-2.322,1.672c-3.352,2.433-6.643,4.893-10.12,7.625c-4.883,3.852-9.823,7.435-14.381,10.646       c1.857-5.339,3.71-10.663,5.554-15.964c1.76-5.132,3.343-9.964,4.786-15.063c0.612-2.182,1.222-4.357,1.83-6.525       c0.608-2.101,1.238-4.187,1.903-6.256c1.331-4.137,2.799-8.201,4.505-12.161c2.667-8.16,6.664-15.776,7.992-24.142       c1.103-3.837,1.878-7.754,2.887-11.565c0.504-1.906,1.068-3.785,1.759-5.615c0.173-0.458,0.354-0.912,0.544-1.363       c0.127-0.324,0.116-0.216,0.149-0.236c0.027-0.002,0.058-0.008,0.093-0.017c0.14-0.035,0.343-0.123,0.643-0.336       c0.057-0.063,0.109-0.14,0.154-0.233c-0.24-0.089-0.357-0.131-0.566-0.27c-0.826-0.585-1.636-1.189-2.436-1.804       c-1.599-1.23-3.157-2.505-4.714-3.765c-3.116-2.521-6.234-4.983-9.697-6.914c-5.44-5.913-12.604-9.222-18.735-13.726       c-5.98-4.709-11.712-9.523-18.051-13.248c-0.797-0.459-1.575-0.942-2.337-1.442l-1.131-0.764l-1.952-1.395       c-2.622-1.896-5.161-3.818-7.58-5.672c-2.361-1.811-4.71-3.612-7.045-5.403c-2.32-1.756-4.648-3.473-7.271-5.292l-0.245-0.156       c2.315-0.214,5.352-0.242,8.479-0.179c3.14,0.062,6.372,0.215,9.418,0.362c3.058,0.147,5.931,0.291,8.683,0.333l2.057,0.013       c0.658-0.003,1.476-0.014,1.778-0.034c0.837-0.041,1.672-0.119,2.504-0.244c6.699,0.22,13.237-0.116,19.605,0.221       c6.369-2.146,12.561,0.034,18.576,0.231c6.018,0.322,11.856-1.408,17.506,0.239c2.808-0.806,5.567-0.861,8.28-0.657       c0.679,0.051,1.354,0.118,2.026,0.194l1.006,0.119l0.502,0.063c0.151,0.021,0.384,0.042,0.401,0.063       c0.513,0.168,1.157,0.34,1.85,0.454l0.021-0.037c0.275-0.469,0.495-1.096,0.66-1.697c0.336-1.132,0.685-2.449,1.011-3.65       c0.668-2.449,1.373-4.833,2.559-7.01c0.404-4.988,3.534-8.879,4.525-13.24c2.094-4.007,2.715-8.267,4.146-12.034       c0.99-3.909,2.248-7.501,3.748-10.775c1.188-3.377,2.302-6.538,3.337-9.479C302.521,89.301,306.208,79.758,306.783,79.943z"></path></g></g></g><g><g><g><path d="M189.393,196.271c0.331,0.504-1.253,2.234-4.439,4.962c-0.536,0.449-1.111,0.931-1.725,1.446       c-0.58,0.568-1.194,1.177-1.983,1.605c-1.185-0.173-0.73,2.244-2.233,1.76c-1.024,0.247-1.712,1.091-2.473,1.907       c-0.754,0.826-2.127,0.792-2.706,2.047c-0.131,1.939-2.94-0.128-2.929,2.183c-0.821,1.042-1.971,1.658-3.144,2.311       c-1.769-0.255-2.278,1.483-3.349,2.433c-1.969-0.417-2.844,0.901-3.548,2.548c-2.319-0.818-3.432,0.271-3.734,2.658       c-1.272,0.909-3.024,1.148-3.916,2.761c-1.292,1.001-2.481,2.218-4.086,2.857c-0.697,2.023-2.17,2.921-4.249,2.948       c-0.695,2.136-2.491,2.646-4.402,3.032c-1.944,0.335-2.373,3.029-4.548,3.109c-1.604,0.948-2.959,2.324-4.683,3.18       c-1.915,0.566-3.887,1.086-4.811,3.246c-1.447,1.363-2.842,2.843-4.93,3.304c-0.852,2.347-2.904,2.899-5.041,3.357       c-1.567,1.324-3.868,1.564-5.141,3.403c-1.861,0.941-3.118,2.832-5.234,3.442c-2.007,0.776-3.991,1.559-5.243,3.427       c-1.208,1.938-3.671,1.931-5.171,3.358c-2.472-0.055-3.141,2.607-5.087,3.283c-1.597,1.21-3.771,1.503-4.996,3.204       c-1.495,1.288-2.964,2.576-4.895,3.117c-0.415,2.854-3.481,1.619-4.784,3.027c-2.057,0.259-3.019,2.141-4.665,2.931       c-1.292,1.328-3.548,1.137-4.535,2.828c-1.565,0.81-2.526,2.488-4.397,2.722c-0.829,1.821-3.3,1.084-4.25,2.607       c-1.365,0.889-2.66,1.826-4.092,2.49c-2.229-0.551-2.741,1.454-3.927,2.366c-1.346,0.666-1.94,2.414-3.751,2.236       c-1.259,0.663-2.819,0.799-3.567,2.102c-0.983,0.941-3.549-0.602-3.372,1.962c-0.832,1.025-3.014-0.085-3.169,1.816       c-0.221,1.802-2.019,1.118-2.957,1.665c-0.952,0.524-1.864,1.027-2.735,1.508c-7.862,4.284-12.606,6.38-13.102,5.623       c-0.552-0.842,4.218-5.086,12.854-11.681c0.863-0.66,1.161-2.265,2.706-2.048c0.983-0.638,1.504-2.062,2.929-2.183       c0.195-1.995,1.98-1.642,3.144-2.31c1.078-0.799,2.507-1.134,3.35-2.433c0.688-1.535,2.648-1.199,3.547-2.549       c1.774-0.014,2.913-1.063,3.735-2.657c1.819-0.074,2.533-1.897,3.915-2.76c2.153,0.312,2.988-1.446,4.086-2.857       c1.126-1.37,2.976-1.692,4.249-2.948c1.618-0.729,2.755-2.244,4.402-3.031c1.143-1.558,2.54-2.776,4.548-3.109       c1.302-1.409,3.085-2.133,4.683-3.181c1.284-1.526,3.256-2.049,4.811-3.245c1.473-1.323,4.131-0.877,4.93-3.305       c1.561-1.266,3.497-1.994,5.04-3.356c1.813-0.951,3.649-1.899,5.141-3.404c2.594,0.177,3.81-1.777,5.234-3.441       c1.512-1.531,3.384-2.484,5.244-3.428c1.647-1.267,3.411-2.326,5.171-3.357c1.45-1.505,3.762-1.66,5.088-3.284       c1.306-1.653,3.718-1.583,4.996-3.204c1.387-1.454,2.868-2.722,4.895-3.118c1.597-1.048,3.96-0.886,4.784-3.026       c1.39-1.276,1.951-3.77,4.665-2.931c1.213-1.449,3.581-1.087,4.535-2.828c2.344,0.378,2.952-1.838,4.397-2.721       c1.585-0.669,3.271-1.13,4.249-2.608c0.944-1.532,2.927-1.42,4.093-2.49c0.803-1.624,3.242-0.69,3.926-2.366       c1.361-0.644,2.388-1.732,3.751-2.237c0.002-2.581,2.344-1.523,3.566-2.102c1.291-0.475,1.423-2.642,3.372-1.962       c0.157-2.054,1.947-1.541,3.169-1.816c1.24-0.246,1.546-1.838,2.957-1.665c0.277-1.555,2.123-0.632,2.735-1.508       c1.247,0.093,1.643-1.026,2.504-1.346c0.608-0.708,1.367-1.094,2.264-1.178c0.717-0.358,1.388-0.693,2.014-1.006       C186.844,196.529,189.062,195.765,189.393,196.271z"></path></g></g></g><g><g><g><path d="M178.331,254.208c0.33,0.504-0.93,2.022-3.524,4.361c-0.438,0.385-0.907,0.797-1.407,1.236       c-0.466,0.495-0.96,1.023-1.622,1.369c-1.057-0.258-0.468,2.071-1.83,1.494c-0.883,0.154-1.423,0.901-2.03,1.616       c-0.601,0.725-1.813,0.585-2.224,1.73c0.036,1.83-2.6-0.352-2.41,1.842c-0.642,0.925-1.606,1.419-2.59,1.946       c-1.577-0.38-1.891,1.229-2.76,2.046c-1.767-0.55-2.436,0.633-2.927,2.14c-2.107-0.958-3.002-0.012-3.083,2.23       c-1.05,0.763-2.575,0.853-3.234,2.313c-1.06,0.849-2.013,1.91-3.376,2.392c-0.457,1.865-1.684,2.602-3.513,2.464       c-0.446,1.972-1.988,2.316-3.642,2.532c-1.686,0.165-1.854,2.688-3.763,2.594c-1.339,0.774-2.427,1.974-3.878,2.651       c-1.643,0.387-3.339,0.726-3.985,2.703c-1.168,1.18-2.282,2.475-4.085,2.749c-0.567,2.16-2.332,2.524-4.178,2.791       c-1.278,1.133-3.286,1.182-4.264,2.826c-1.566,0.748-2.526,2.443-4.342,2.856c-1.708,0.578-3.394,1.167-4.352,2.842       c-0.912,1.744-3.083,1.544-4.293,2.781c-2.182-0.245-2.564,2.228-4.226,2.718c-1.313,1.022-3.205,1.131-4.151,2.648       c-1.217,1.105-2.41,2.213-4.069,2.574c-0.143,2.675-2.94,1.265-3.979,2.498c-1.791,0.085-2.493,1.795-3.88,2.416       c-1.035,1.159-3.038,0.801-3.775,2.328c-1.316,0.646-2.031,2.163-3.662,2.238c-0.588,1.664-2.822,0.771-3.54,2.143       c-1.134,0.735-2.201,1.523-3.411,2.042c-2.006-0.697-2.301,1.165-3.274,1.938c-1.135,0.526-1.521,2.139-3.13,1.828       c-1.058,0.531-2.421,0.538-2.978,1.715c-0.793,0.816-3.173-0.848-2.817,1.598c-0.653,0.908-2.661-0.315-2.65,1.476       c-0.054,1.691-1.691,0.903-2.475,1.348c-0.797,0.424-1.562,0.829-2.292,1.217c-6.592,3.45-10.607,5.067-11.104,4.311       c-0.551-0.842,3.319-4.496,10.413-10.077c0.709-0.559,0.847-2.058,2.224-1.73c0.816-0.529,1.165-1.839,2.41-1.842       c0.017-1.878,1.617-1.403,2.589-1.946c0.887-0.674,2.12-0.879,2.761-2.046c0.486-1.402,2.239-0.93,2.925-2.141       c1.562,0.126,2.484-0.779,3.083-2.229c1.597,0.072,2.083-1.603,3.234-2.313c1.92,0.464,2.519-1.139,3.376-2.392       c0.886-1.212,2.49-1.373,3.513-2.465c1.369-0.564,2.252-1.913,3.642-2.531c0.885-1.389,2.021-2.436,3.764-2.595       c1.037-1.235,2.551-1.781,3.878-2.65c1.012-1.348,2.708-1.689,3.985-2.703c1.194-1.141,3.571-0.509,4.085-2.75       c1.276-1.078,2.925-1.618,4.178-2.79c1.522-0.761,3.066-1.517,4.263-2.827c2.298,0.371,3.217-1.389,4.342-2.856       c1.212-1.334,2.787-2.092,4.352-2.842c1.353-1.073,2.824-1.94,4.294-2.78c1.16-1.314,3.184-1.281,4.226-2.718       c1.021-1.467,3.152-1.21,4.151-2.648c1.108-1.271,2.314-2.358,4.069-2.575c1.325-0.87,3.42-0.531,3.978-2.498       c1.125-1.102,1.425-3.424,3.88-2.416c0.956-1.279,3.07-0.751,3.775-2.328c2.094,0.542,2.457-1.513,3.662-2.237       c1.344-0.512,2.793-0.816,3.54-2.143c0.712-1.379,2.467-1.118,3.411-2.042c0.581-1.478,2.802-0.401,3.274-1.938       c1.149-0.504,1.968-1.456,3.13-1.829c-0.2-2.448,1.946-1.262,2.978-1.715c1.1-0.349,1.048-2.395,2.818-1.598       c-0.021-1.938,1.595-1.31,2.65-1.476c1.074-0.136,1.219-1.623,2.475-1.348c0.123-1.453,1.821-0.435,2.292-1.217       c1.105,0.186,1.367-0.845,2.101-1.082c0.48-0.623,1.119-0.931,1.902-0.94c0.604-0.284,1.169-0.549,1.696-0.797       C176.105,254.254,178,253.703,178.331,254.208z"></path></g></g></g><g><g><g><path d="M213.897,278.092c0.331,0.504-1.277,2.252-4.507,5.014c-0.543,0.455-1.127,0.942-1.749,1.464       c-0.588,0.575-1.211,1.189-2.01,1.626c-1.195-0.166-0.749,2.258-2.264,1.782c-1.035,0.255-1.734,1.107-2.506,1.933       c-0.766,0.835-2.151,0.81-2.742,2.074c-0.142,1.948-2.967-0.108-2.968,2.212c-0.834,1.052-1.998,1.678-3.186,2.342       c-1.783-0.243-2.307,1.505-3.394,2.466c-1.985-0.405-2.875,0.925-3.594,2.583c-2.337-0.806-3.466,0.296-3.784,2.695       c-1.289,0.922-3.059,1.174-3.967,2.8c-1.309,1.014-2.516,2.243-4.139,2.896c-0.715,2.037-2.207,2.948-4.305,2.989       c-0.713,2.149-2.529,2.675-4.459,3.075c-1.964,0.35-2.411,3.059-4.606,3.154c-1.625,0.963-3,2.354-4.744,3.226       c-1.936,0.581-3.93,1.117-4.874,3.292c-1.467,1.379-2.884,2.875-4.993,3.353c-0.873,2.362-2.946,2.932-5.105,3.406       c-1.589,1.34-3.913,1.598-5.208,3.452c-1.883,0.959-3.163,2.865-5.301,3.493c-2.03,0.793-4.037,1.593-5.311,3.478       c-1.229,1.955-3.715,1.964-5.237,3.408c-2.495-0.038-3.185,2.64-5.153,3.333c-1.619,1.226-3.814,1.535-5.06,3.251       c-1.516,1.305-3.005,2.608-4.958,3.165c-0.434,2.867-3.521,1.65-4.845,3.073c-2.077,0.273-3.059,2.17-4.724,2.975       c-1.312,1.343-3.588,1.166-4.593,2.871c-1.584,0.824-2.563,2.517-4.453,2.764c-0.847,1.835-3.336,1.112-4.303,2.648       c-1.383,0.901-2.695,1.852-4.144,2.528c-2.246-0.536-2.774,1.479-3.976,2.403c-1.363,0.678-1.971,2.438-3.798,2.271       c-1.275,0.676-2.85,0.823-3.612,2.136c-0.998,0.952-3.579-0.579-3.414,1.993c-0.845,1.036-3.041-0.063-3.208,1.846       c-0.232,1.811-2.044,1.138-2.993,1.692c-0.963,0.534-1.887,1.045-2.769,1.533c-7.959,4.356-12.758,6.494-13.255,5.738       c-0.552-0.841,4.284-5.137,13.037-11.818c0.875-0.668,1.184-2.282,2.742-2.074c0.996-0.648,1.529-2.081,2.968-2.212       c0.208-2.005,2.008-1.663,3.186-2.342c1.092-0.81,2.537-1.156,3.394-2.466c0.703-1.546,2.68-1.223,3.594-2.584       c1.791-0.026,2.946-1.087,3.785-2.694c1.837-0.087,2.566-1.923,3.966-2.799c2.171,0.298,3.023-1.473,4.14-2.897       c1.145-1.384,3.013-1.721,4.304-2.989c1.637-0.743,2.793-2.273,4.46-3.075c1.161-1.571,2.578-2.805,4.606-3.153       c1.322-1.425,3.125-2.163,4.745-3.227c1.304-1.541,3.297-2.08,4.873-3.292c1.493-1.339,4.175-0.909,4.994-3.353       c1.582-1.281,3.541-2.026,5.105-3.405c1.834-0.968,3.693-1.933,5.207-3.454c2.617,0.16,3.855-1.811,5.302-3.492       c1.534-1.548,3.428-2.518,5.311-3.479c1.669-1.283,3.456-2.359,5.237-3.407c1.471-1.521,3.806-1.692,5.153-3.332       c1.327-1.67,3.762-1.615,5.06-3.252c1.407-1.469,2.909-2.753,4.957-3.165c1.618-1.063,4.002-0.918,4.845-3.072       c1.41-1.291,1.989-3.799,4.724-2.976c1.232-1.463,3.621-1.117,4.593-2.872c2.363,0.363,2.989-1.865,4.453-2.762       c1.604-0.684,3.307-1.158,4.303-2.648c0.961-1.545,2.962-1.447,4.145-2.529c0.819-1.636,3.276-0.716,3.976-2.403       c1.377-0.655,2.419-1.756,3.798-2.271c0.016-2.592,2.375-1.547,3.611-2.136c1.306-0.485,1.451-2.662,3.415-1.994       c0.169-2.063,1.974-1.561,3.209-1.846c1.253-0.255,1.571-1.856,2.993-1.692c0.288-1.563,2.146-0.649,2.769-1.532       c1.258,0.084,1.664-1.042,2.535-1.37c0.617-0.714,1.385-1.107,2.291-1.198c0.726-0.364,1.405-0.706,2.039-1.024       C211.323,278.369,213.565,277.587,213.897,278.092z"></path></g></g></g><g><g><g><path d="M205.704,324.382c0.332,0.504-0.842,1.968-3.276,4.207c-0.411,0.368-0.852,0.764-1.321,1.184       c-0.436,0.476-0.896,0.984-1.525,1.309c-1.024-0.277-0.396,2.027-1.722,1.428c-0.845,0.131-1.346,0.854-1.911,1.542       c-0.559,0.699-1.729,0.532-2.095,1.65c0.083,1.801-2.511-0.406-2.271,1.755c-0.594,0.895-1.509,1.358-2.441,1.854       c-1.528-0.411-1.787,1.164-2.603,1.948c-1.714-0.583-2.327,0.564-2.76,2.036c-2.053-0.992-2.89-0.082-2.908,2.121       c-0.99,0.727-2.455,0.779-3.051,2.2c-0.998,0.81-1.887,1.831-3.187,2.272c-0.391,1.824-1.552,2.521-3.315,2.342       c-0.378,1.93-1.853,2.232-3.438,2.406c-1.618,0.123-1.713,2.602-3.553,2.464c-1.268,0.73-2.283,1.884-3.662,2.517       c-1.57,0.342-3.194,0.636-3.763,2.565c-1.093,1.134-2.131,2.382-3.858,2.609c-0.49,2.112-2.178,2.429-3.947,2.647       c-1.2,1.085-3.13,1.086-4.028,2.681c-1.487,0.699-2.367,2.344-4.104,2.708c-1.628,0.529-3.235,1.068-4.113,2.693       c-0.832,1.695-2.926,1.447-4.058,2.636c-2.106-0.292-2.409,2.132-3.995,2.574c-1.236,0.976-3.054,1.038-3.925,2.509       c-1.142,1.059-2.261,2.12-3.848,2.438c-0.067,2.628-2.795,1.175-3.762,2.364c-1.722,0.041-2.352,1.707-3.67,2.285       c-0.966,1.116-2.902,0.717-3.571,2.202c-1.249,0.604-1.897,2.081-3.464,2.116c-0.523,1.623-2.695,0.692-3.35,2.024       c-1.072,0.697-2.078,1.447-3.229,1.929c-1.948-0.731-2.184,1.093-3.1,1.83c-1.078,0.491-1.408,2.067-2.963,1.725       c-1.004,0.498-2.316,0.473-2.821,1.618c-0.742,0.784-3.076-0.909-2.669,1.505c-0.604,0.878-2.569-0.373-2.511,1.39       c-0.008,1.663-1.604,0.849-2.346,1.269c-0.756,0.397-1.481,0.778-2.173,1.143c-6.253,3.239-10.074,4.736-10.571,3.98       c-0.553-0.841,3.076-4.345,9.755-9.669c0.668-0.533,0.76-2.005,2.095-1.65c0.771-0.502,1.072-1.781,2.271-1.756       c-0.033-1.847,1.519-1.342,2.44-1.854c0.835-0.642,2.017-0.815,2.603-1.948c0.432-1.368,2.131-0.862,2.759-2.037       c1.506,0.16,2.369-0.709,2.908-2.12c1.539,0.108,1.962-1.527,3.051-2.199c1.86,0.501,2.394-1.061,3.187-2.273       c0.82-1.172,2.359-1.292,3.315-2.342c1.302-0.524,2.117-1.83,3.438-2.406c0.815-1.345,1.881-2.348,3.554-2.463       c0.965-1.191,2.408-1.693,3.662-2.518c0.938-1.302,2.562-1.599,3.764-2.565c1.119-1.094,3.422-0.417,3.858-2.609       c1.199-1.031,2.772-1.523,3.947-2.647c1.445-0.713,2.911-1.42,4.028-2.681c2.222,0.418,3.06-1.291,4.104-2.708       c1.132-1.284,2.627-1.993,4.113-2.694c1.273-1.023,2.666-1.843,4.059-2.635c1.081-1.266,3.03-1.186,3.995-2.574       c0.945-1.419,3.001-1.117,3.925-2.508c1.033-1.225,2.165-2.267,3.847-2.438c1.252-0.825,3.277-0.443,3.762-2.364       c1.054-1.058,1.281-3.335,3.67-2.285c0.886-1.237,2.934-0.668,3.571-2.203c2.029,0.583,2.324-1.431,3.464-2.115       c1.28-0.472,2.666-0.737,3.35-2.023c0.649-1.341,2.345-1.043,3.229-1.93c0.52-1.44,2.686-0.329,3.1-1.829       c1.092-0.47,1.855-1.387,2.964-1.726c-0.256-2.414,1.839-1.196,2.82-1.618c1.049-0.317,0.945-2.331,2.669-1.506       c-0.072-1.905,1.5-1.25,2.512-1.389c1.029-0.108,1.13-1.568,2.346-1.269c0.08-1.427,1.741-0.384,2.173-1.144       c1.069,0.209,1.294-0.799,1.993-1.015c0.446-0.602,1.052-0.89,1.806-0.88c0.573-0.266,1.11-0.514,1.611-0.744       C203.564,324.375,205.373,323.877,205.704,324.382z"></path></g></g></g><g><g><g><path d="M257.618,335.058c0.331,0.504-0.974,2.051-3.648,4.443c-0.451,0.394-0.935,0.815-1.45,1.266       c-0.481,0.504-0.991,1.044-1.671,1.4c-1.075-0.245-0.503,2.096-1.885,1.531c-0.902,0.167-1.462,0.928-2.09,1.656       c-0.621,0.738-1.855,0.612-2.29,1.773c0.014,1.846-2.646-0.32-2.48,1.889c-0.667,0.94-1.656,1.451-2.665,1.996       c-1.604-0.363-1.943,1.264-2.84,2.1c-1.794-0.532-2.491,0.669-3.011,2.195c-2.136-0.938-3.061,0.027-3.171,2.289       c-1.08,0.782-2.636,0.894-3.327,2.374c-1.091,0.87-2.076,1.952-3.473,2.455c-0.489,1.887-1.75,2.646-3.613,2.53       c-0.48,1.994-2.057,2.361-3.745,2.601c-1.721,0.189-1.924,2.735-3.87,2.665c-1.375,0.799-2.499,2.021-3.987,2.724       c-1.68,0.411-3.414,0.775-4.097,2.777c-1.206,1.205-2.358,2.526-4.2,2.826c-0.606,2.186-2.409,2.575-4.295,2.868       c-1.317,1.159-3.365,1.234-4.383,2.905c-1.606,0.774-2.606,2.496-4.463,2.937c-1.749,0.605-3.475,1.221-4.473,2.922       c-0.952,1.771-3.163,1.598-4.412,2.861c-2.222-0.22-2.642,2.279-4.343,2.795c-1.351,1.048-3.282,1.182-4.266,2.725       c-1.254,1.131-2.485,2.263-4.181,2.649c-0.18,2.699-3.013,1.313-4.087,2.57c-1.828,0.109-2.564,1.843-3.987,2.486       c-1.07,1.183-3.107,0.847-3.878,2.397c-1.35,0.667-2.098,2.207-3.762,2.304c-0.621,1.686-2.887,0.814-3.636,2.206       c-1.166,0.757-2.264,1.565-3.503,2.104c-2.037-0.676-2.361,1.205-3.363,1.997c-1.163,0.545-1.578,2.176-3.214,1.884       c-1.085,0.55-2.476,0.574-3.058,1.769c-0.819,0.833-3.225-0.814-2.893,1.647c-0.677,0.924-2.709-0.284-2.721,1.521       c-0.077,1.708-1.736,0.934-2.54,1.393c-0.818,0.438-1.603,0.856-2.352,1.257c-6.765,3.563-10.879,5.247-11.375,4.49       c-0.552-0.842,3.441-4.577,10.745-10.297c0.73-0.572,0.889-2.086,2.29-1.774c0.839-0.544,1.21-1.869,2.48-1.889       c0.041-1.894,1.666-1.436,2.665-1.995c0.913-0.691,2.172-0.915,2.841-2.1c0.514-1.42,2.295-0.967,3.01-2.196       c1.59,0.106,2.542-0.818,3.172-2.288c1.627,0.053,2.144-1.643,3.326-2.374c1.952,0.443,2.583-1.18,3.473-2.455       c0.918-1.233,2.556-1.417,3.613-2.53c1.403-0.588,2.32-1.96,3.745-2.601c0.92-1.411,2.091-2.481,3.87-2.665       c1.073-1.26,2.624-1.83,3.987-2.724c1.049-1.372,2.782-1.738,4.097-2.777c1.231-1.165,3.647-0.56,4.2-2.826       c1.314-1.104,3.003-1.669,4.295-2.867c1.562-0.787,3.146-1.569,4.382-2.907c2.339,0.345,3.298-1.441,4.464-2.936       c1.253-1.361,2.868-2.146,4.473-2.923c1.393-1.1,2.903-1.993,4.413-2.859c1.199-1.341,3.263-1.333,4.343-2.796       c1.06-1.492,3.229-1.261,4.266-2.725c1.146-1.295,2.39-2.408,4.181-2.649c1.362-0.895,3.494-0.58,4.088-2.57       c1.161-1.126,1.496-3.472,3.987-2.486c0.991-1.304,3.14-0.798,3.878-2.397c2.128,0.52,2.524-1.558,3.761-2.304       c1.377-0.533,2.858-0.859,3.636-2.206c0.744-1.4,2.53-1.16,3.504-2.104c0.611-1.498,2.862-0.441,3.363-1.997       c1.178-0.523,2.025-1.494,3.215-1.884c-0.173-2.468,2-1.299,3.058-1.769c1.126-0.366,1.098-2.429,2.893-1.648       c0.002-1.952,1.643-1.341,2.721-1.521c1.096-0.151,1.264-1.652,2.54-1.392c0.144-1.467,1.862-0.462,2.352-1.257       c1.125,0.173,1.405-0.87,2.156-1.118c0.497-0.635,1.152-0.953,1.951-0.973c0.619-0.294,1.199-0.569,1.739-0.825       C255.349,335.133,257.287,334.553,257.618,335.058z"></path></g></g></g><g><g><g><path d="M357.097,313.423c0.332,0.503-2.198,2.863-7.117,6.744c-0.825,0.642-1.711,1.33-2.656,2.065       c-0.911,0.789-1.878,1.632-3.041,2.31c-1.56,0.076-1.494,2.752-3.413,2.545c-1.438,0.522-2.558,1.654-3.771,2.771       c-1.205,1.126-3.05,1.405-4.116,2.985c-0.616,2.263-3.938,0.537-4.448,3.193c-1.345,1.391-3.035,2.366-4.768,3.391       c-2.328,0.118-3.41,2.237-5.071,3.58c-2.563-0.023-4.043,1.698-5.366,3.757c-2.944-0.402-4.693,1.11-5.644,3.929       c-1.922,1.342-4.342,2.025-5.91,4.089c-1.971,1.452-3.852,3.129-6.163,4.238c-1.4,2.491-3.592,3.867-6.402,4.381       c-1.423,2.62-3.963,3.626-6.629,4.514c-2.699,0.838-3.89,4.039-6.843,4.637c-2.38,1.465-4.521,3.363-7.042,4.749       c-2.712,1.097-5.492,2.154-7.229,4.855c-2.262,1.905-4.481,3.934-7.403,4.95c-1.682,2.899-4.577,4.013-7.564,5.036       c-2.416,1.888-5.575,2.7-7.71,5.112c-2.726,1.517-4.851,3.985-7.845,5.179c-2.885,1.36-5.739,2.724-7.854,5.165       c-2.069,2.512-5.392,3.075-7.74,5.067c-3.324,0.513-4.831,3.732-7.611,4.964c-2.43,1.764-5.431,2.606-7.469,4.849       c-2.31,1.831-4.585,3.655-7.313,4.728c-1.207,3.38-5.065,2.673-7.143,4.597c-2.834,0.776-4.56,3.166-6.96,4.458       c-2.045,1.83-5.047,2.134-6.763,4.311c-2.296,1.295-3.973,3.451-6.552,4.155c-1.533,2.29-4.7,2.016-6.327,3.99       c-2.044,1.34-4.004,2.72-6.087,3.817c-2.883-0.114-4.029,2.312-5.836,3.637c-1.969,1.08-3.167,3.23-5.57,3.447       c-1.851,1.057-3.986,1.575-5.291,3.248c-1.542,1.313-4.653,0.134-4.996,3.043c-1.355,1.374-4.047,0.604-4.689,2.827       c-0.707,2.125-2.978,1.757-4.367,2.604c-1.404,0.825-2.75,1.616-4.034,2.371c-11.583,6.761-18.46,10.276-18.958,9.521       c-0.554-0.841,6.846-6.835,19.998-16.435c1.315-0.96,2.081-2.877,4.116-2.986c1.472-0.963,2.498-2.723,4.448-3.193       c0.716-2.342,3.045-2.351,4.767-3.39c1.635-1.171,3.641-1.889,5.073-3.579c1.277-1.927,3.846-1.996,5.365-3.759       c2.397-0.429,4.173-1.9,5.644-3.928c2.472-0.508,3.849-2.773,5.91-4.087c2.835-0.143,4.361-2.359,6.163-4.239       c1.831-1.84,4.4-2.641,6.403-4.382c2.349-1.215,4.228-3.224,6.629-4.514c1.895-2.058,4.057-3.785,6.842-4.636       c2.078-1.926,4.648-3.172,7.042-4.75c2.08-2.056,4.858-3.115,7.229-4.854c2.287-1.866,5.774-1.971,7.402-4.95       c2.393-1.819,5.172-3.108,7.563-5.036c2.662-1.517,5.355-3.035,7.71-5.113c3.46-0.399,5.544-2.932,7.845-5.179       c2.388-2.114,5.13-3.646,7.854-5.165c2.511-1.842,5.131-3.472,7.74-5.067c2.298-2.069,5.454-2.786,7.611-4.963       c2.138-2.207,5.377-2.687,7.47-4.85c2.201-1.995,4.488-3.801,7.313-4.728c2.394-1.578,5.547-1.941,7.143-4.596       c2.166-1.792,3.489-4.793,6.96-4.459c1.967-1.95,5.08-2.085,6.764-4.311c3.076-0.109,4.4-2.802,6.552-4.154       c2.291-1.14,4.67-2.062,6.326-3.99c1.621-1.983,4.271-2.315,6.089-3.818c1.452-2.056,4.531-1.549,5.835-3.637       c1.983-1.057,3.615-2.549,5.57-3.446c0.589-2.972,3.51-2.3,5.29-3.249c1.85-0.846,2.52-3.371,4.997-3.043       c0.678-2.401,2.977-2.227,4.689-2.827c1.729-0.571,2.504-2.477,4.367-2.604c0.727-1.854,3.009-1.222,4.033-2.372       c1.661-0.183,2.45-1.563,3.685-2.132c0.98-0.955,2.093-1.577,3.322-1.882c1.049-0.579,2.031-1.122,2.946-1.627       C353.598,314.313,356.765,312.918,357.097,313.423z"></path></g></g></g><g><g><g><path d="M196.856,70.357c0.574,0.186,0.261,3.033-0.81,8.083c-0.186,0.841-0.385,1.743-0.598,2.706       c-0.152,0.984-0.31,2.031-0.721,3.06c-1.096,0.808,0.706,2.615-0.84,3.402c-0.714,1.055-0.795,2.375-0.955,3.73       c-0.148,0.909-0.598,1.89-0.96,2.787c-0.373,0.93-0.681,1.843-0.747,3.238l0.008,0.063c-0.582,0.742-2.136,0.307-3.349-0.074       c-0.625-0.19-1.202-0.366-1.745-0.375c-0.273-0.004-0.54,0.033-0.815,0.132c-0.313,0.099-0.49,0.259-0.679,0.5       c-0.777,0.209-1.566,0.285-2.367,0.295l-0.604-0.003c-0.178-0.004-0.473-0.012-0.499-0.021l-0.514-0.069       c-0.504-0.592-1.055-0.595-1.34-0.424c-0.313,0.171-0.356,0.517-0.557,0.62c-1.163-0.716-2.034-0.918-2.335-0.818       c-0.315,0.101-0.058,0.504,0.671,1.001c-4.775-1.953-6.524-1.667-1.5,0.146l0.09,0.032c0.335,0.204,0.075,0.231,0.169,0.391       c0.074,0.146,0.504,0.426,1.715,0.771c0.384,0.198,0.854,0.385,1.17,0.534c0.323,0.154,0.491,0.27,0.474,0.47       c1.116-0.002,1.478-0.127,1.565-0.076c0.043,0.025,0.016,0.093-0.025,0.238l-0.034,0.124c0,0.055-0.066,0.067,0.053,0.218       c0.156,0.244,0.303,0.501,0.44,0.773c0.644,0.032,1.218,0.165,1.738,0.375c0.26,0.105,0.507,0.23,0.742,0.372l0.175,0.109       l0.22,0.151l0.634,0.467c1.677,1.278,3.125,2.72,4.32,4.031c0.116,0.132,0.238,0.259,0.366,0.384       c-1.615,3.326-1.319,8.097-2.812,9.213c-0.1,0.27-0.193,0.542-0.28,0.816l-0.128,0.414c-0.028,0.09-0.032,0.11-0.031,0.115       l-0.006,0.042c-0.014,0.114-0.013,0.224-0.012,0.322c-0.001,0.204,0.001,0.339-0.208,0.609       c-0.426,0.374-0.952,0.993-1.171,1.432c-0.211,0.416-0.117,0.653,0.89-0.333c0.285-0.14,0.758-0.681,0.635-0.452       c0.015,0.019-0.145,0.277-0.445,0.82c1.31-1.878,1.439-2.23,1.372-2.085c-0.086,0.159-0.368,0.813-0.396,1.322       c0.197-0.296,0.257-0.089,0.472-0.086c0.214,0.004,0.453-0.102,0.506-0.659c0.551-0.33,1.062-0.716,1.557-1.127l0.733-0.629       l0.364-0.32l0.182-0.161l0.324-0.262c1.885-1.512,3.944-3.085,5.907-4.113l0.064-0.037c1.941,1.694,3.715,3.257,5.509,4.631       l0.543,0.411l0.391,0.278c0.264,0.181,0.536,0.351,0.815,0.508c0.561,0.315,1.156,0.58,1.798,0.778       c0.211,0.08,0.227,0.028,0.265,0.003l0.096-0.06c0.052-0.031,0.083-0.042,0.107-0.032c0.046,0.018,0.068,0.118,0.119,0.262       c0.08,0.272,0.359,0.781,0.444,0.613c0.511,1.24,0.86,1.353,0.818,1.041c0.014-0.271-0.36-0.964,0.156-0.277       c0.034-0.035,0.277,0.25,0.599,0.608c0.273,0.249,0.5,0.223-0.397-0.963c-0.278-0.436-0.527-0.771-0.604-0.93       c-0.081-0.169,0.009-0.163,0.326-0.169c-1.412-0.846-1.16-0.521-0.829-0.635c0.174-0.032,0.382-0.129,0.5-0.267       c0.023-0.055,0.069-0.023,0.057-0.152c-0.018-0.146-0.043-0.29-0.075-0.431c-0.065-0.282-0.163-0.553-0.307-0.808       c0.036-0.59-0.033-1.144-0.167-1.675c-0.074-0.29-0.131-0.472-0.26-0.835c-0.155-0.446-0.321-0.89-0.495-1.335       c-0.688-1.769-1.509-3.646-2.031-5.451l0.446-0.292c1.401-1.263,3.299-2.329,4.956-3.294l0.621-0.366l0.151-0.09l0.092-0.049       l0.182-0.099c0.241-0.134,0.474-0.278,0.695-0.437c0.442-0.318,0.838-0.698,1.147-1.192c0.232-0.14,0.455-0.293,0.67-0.455       l0.141-0.109l0.034-0.036l0.06-0.078c0.073-0.107,0.117-0.221,0.163-0.312c0.106-0.191,0.179-0.258,0.955-0.307       c-0.528-0.277-0.132-0.286,0.582-0.475c0.667-0.156,1.647-0.489,1.061-0.53c0.507-0.36,0.701-0.591,1.882-1.163l0.113-0.041       c2.191-0.818,1.759-0.881,0.957-0.725c-0.842,0.156-2.06,0.529-2.477,0.586c-0.146-0.09-0.935,0.149-1.381,0.269       c-0.478,0.12-0.617,0.118-0.281-0.453c-0.247-0.067-0.395-0.287-0.708-0.404c-0.296-0.117-0.755-0.132-1.19,0.208       c-0.185,0.063-0.321-0.06-0.505-0.242l-0.07-0.071c-0.038-0.024-0.098-0.049-0.146-0.075l-0.304-0.157       c-0.202-0.106-0.403-0.212-0.604-0.303c-0.802-0.362-1.591-0.475-2.366,0.646c-0.286,0.101-1.044,0.045-1.573-0.073       c-0.568-0.118-1.091-0.297-1.583-0.443c-1.01-0.292-1.812-0.449-3.414,0.291l-0.018-0.006c-0.844-0.362-1.2-1.607-1.344-2.784       c-0.149-1.194-0.108-2.381-0.358-3.251c-0.331-1.298-0.647-2.543-0.95-3.731c-2.68-10.708-3.807-16.977-2.946-17.254       c0.958-0.308,4.235,6.825,9.075,19.32c0.164,0.382,0.537,0.514,0.774,0.677c0.24,0.172,0.325,0.313,0.049,1.136l0.002,0.006       c0.344-0.001,0.81-0.226,1.148-0.366c0.174-0.07,0.325-0.119,0.468-0.107c0.181,0.011,0.166,0.082,0.662,0.25       c0.775-0.782,1.563-0.854,2.365-0.722c0.2,0.033,0.401,0.079,0.604,0.13l0.304,0.079l0.16,0.041l0.251,0.04       c0.669,0.105,1.315,0.199,1.975,0.218c1.347-0.041,2.658,0.064,3.979,0.101c1.335,0.036,2.678,0.004,4.467-0.31       c1.977-0.456,3.435-0.345,4.688-0.201c1.29,0.144,2.37,0.323,4.563,0.001c1.028,0.953,3.917,0.707,9.909-0.17l0.001,0.021       c-2.768,1.425-3.825,2.251-4.732,3.108c-0.882,0.839-1.618,1.71-3.086,2.75c-3.019,1.295-4.428,2.183-5.521,3.153       c-1.069,0.953-1.825,1.99-2.936,3.151c-1.144,1.154-2.799,2.285-4.398,3.349c-0.805,0.536-1.606,1.062-2.384,1.609       l-0.579,0.416l-0.465,0.353c-0.209,0.169-0.412,0.35-0.605,0.544c-0.479,0.261-0.926,0.569-1.357,0.903l-0.638,0.517       l-0.157,0.133l-0.079,0.067l-0.015,0.021l-0.046,0.078c-0.126,0.209-0.161,0.358-0.464,0.426l0.055,0.064       c0.419,0.298,0.657,0.377,0.711,0.453c0.014,0.02,0.016,0.04,0.008,0.066c-0.01-0.018,0.012,0.064,0.028,0.131l0.045,0.2       l0.078,0.405c0.091,0.545,0.133,1.107,0.117,1.691c0.145,0.255,0.276,0.515,0.398,0.778l0.176,0.397l0.263,0.709       c0.365,1.019,0.701,2.056,1.02,3.088c0.64,2.072,1.204,4.098,1.877,6.159c1.04,2.26,1.737,4.45,2.327,6.484       c0.597,2.056,1.087,3.955,1.903,6.213c0.612,1.563,0.861,2.728,1.018,3.727c0.161,1.01,0.229,1.852,0.577,3.052       c-1.324-1.024-2.249-1.531-2.692-1.158c-1.713-1.124-3.704-2.653-5.627-4.119c-1.937-1.476-3.806-2.888-5.636-4.041       c-1.956-1.549-3.851-3.059-5.728-4.457c-0.94-0.7-1.88-1.375-2.841-2.028c-0.486-0.321-0.974-0.643-1.463-0.965l-0.752-0.473       c-0.253-0.157-0.543-0.338-0.642-0.375c-0.283-0.69-0.661-1.254-1.105-1.729c-0.222-0.237-0.461-0.451-0.713-0.647       c-0.126-0.099-0.256-0.192-0.389-0.282l-0.188-0.123l-0.062-0.022c-0.352-0.11-0.709,0.112-0.819,0.41l-0.004,0.016       c-0.118,0.365-0.131,0.442-0.226,0.476c-0.021,0.012,0.021-0.02-0.051,0.029l-0.2,0.135l-0.403,0.266l-0.815,0.518l-1.649,1       l-1.363,1.051l-1.452,1.092c-0.976,0.713-1.949,1.425-2.92,2.135c-1.946,1.4-3.873,2.746-5.753,4.051       c-2.037,1.77-3.902,2.919-5.609,3.979c-1.74,1.084-3.323,2.08-5.661,4.172c-1.651,1.487-2.976,2.434-4.093,3.135       c0.661-1.672,1.326-3.354,1.982-5.013c0.598-1.567,1.042-2.907,1.144-3.905c0.322-1.71,0.78-3.667,1.47-5.837       c0.688-2.162,1.608-4.537,2.779-6.854c0.686-2.089,1.776-4.263,2.607-6.181c0.419-0.972,0.782-1.903,1.042-2.867l0.093-0.364       c0.032-0.131,0.058-0.248,0.061-0.302c0.019-0.146,0.029-0.294,0.032-0.445c0.005-0.301-0.022-0.613-0.092-0.938       c0.102-0.542,0.124-1.107,0.135-1.674l0.008-0.425c-0.007-0.111,0.031-0.359-0.023-0.321c-0.071-0.038-0.139-0.063-0.193-0.077       c-0.212-0.08-0.255,0.128,0.797-0.317c0.096-0.048,0.195-0.098,0.299-0.15c-0.461,0.004-0.297-0.202-0.378-0.527l-0.03-0.117       c-0.015-0.041-0.172-0.182-0.253-0.265c-0.199-0.191-0.405-0.373-0.623-0.537c-0.436-0.328-0.92-0.585-1.495-0.713       c-0.102-0.32-0.232-0.601-0.385-0.849c-0.042-0.1-0.247-0.304-0.396-0.458c-0.16-0.161-0.323-0.314-0.49-0.46       c-0.666-0.584-1.399-1.067-2.201-1.54c-1.581-0.928-3.513-1.872-4.989-2.972c-1.289-1.122-2.383-2.174-3.621-3.174       c-1.25-1.009-2.644-1.967-4.84-3.122c-2.288-1.182-3.56-2.229-4.5-3.115c-0.967-0.906-1.606-1.653-3.324-2.736l-0.08-0.042       c0.301-0.441,2.955-0.136,5.246,0.152c2.347,0.288,4.339,0.559,4.776,0.049c1.758,0.106,3.185,0.074,4.657,0.056       c1.461-0.018,2.965-0.021,4.597,0.144c0.224-1.079,2.021-1.073,3.716-0.775c1.748,0.298,3.4,0.889,4.729,0.984       c0.684,0.079,1.321,0.029,1.979-0.064c0.389-0.046,0.495-0.104,0.722-0.162c0.203-0.055,0.405-0.109,0.604-0.163       c0.802-0.19,1.591-0.215,2.366,0.604c0.505-0.405,0.454-0.623,0.593-0.713c0.1-0.091,0.204-0.056,0.354,0.044       c0.283,0.2,0.807,0.659,1.318,0.884l0.009-0.003c0.281-0.096,0.266-0.611,0.261-0.976c0.008-0.405,0.004-0.592,0.568-0.845       c-0.681-1.626,1.41-2.297,1.409-3.583c1.101-0.931,0.776-2.261,1.31-3.25c0.094-1.131,0.504-2.097,1.207-2.902       c0.392-0.906,0.758-1.754,1.099-2.544C194.869,72.664,196.282,70.171,196.856,70.357z"></path></g></g></g><g><g><g><path d="M431.659,212.978c0.574,0.185,0.266,3.033-0.797,8.083c-0.185,0.84-0.383,1.743-0.594,2.706       c-0.151,0.984-0.308,2.032-0.717,3.061c-1.095,0.809,0.71,2.614-0.834,3.403c-0.713,1.056-0.792,2.376-0.949,3.731       c-0.149,0.917-0.596,1.893-0.957,2.792c-0.372,0.931-0.679,1.845-0.742,3.24l0.007,0.061c-0.58,0.743-2.135,0.307-3.349-0.073       c-0.626-0.19-1.202-0.367-1.745-0.375c-0.272-0.004-0.54,0.033-0.814,0.132c-0.312,0.099-0.496,0.259-0.682,0.5       c-0.777,0.209-1.565,0.285-2.367,0.295l-0.604-0.003l-0.304-0.009l-0.149-0.006l-0.062-0.006l-0.515-0.069       c-0.501-0.592-1.051-0.595-1.338-0.424c-0.313,0.171-0.358,0.517-0.56,0.62c-1.158-0.716-2.029-0.918-2.331-0.818       c-0.315,0.101-0.06,0.504,0.667,1.001c-4.767-1.954-6.517-1.667-1.5,0.147l0.089,0.032c0.335,0.204,0.075,0.232,0.169,0.392       c0.074,0.146,0.504,0.426,1.713,0.771c0.384,0.198,0.854,0.386,1.169,0.534c0.323,0.155,0.491,0.27,0.474,0.471       c1.113-0.003,1.475-0.128,1.562-0.077c0.043,0.025,0.017,0.094-0.024,0.239l-0.033,0.124c-0.016,0.043-0.044,0.083,0.071,0.232       c0.155,0.244,0.302,0.501,0.439,0.773c0.644,0.033,1.218,0.166,1.737,0.377c0.261,0.105,0.507,0.23,0.742,0.372l0.175,0.109       l0.235,0.163l0.634,0.468c1.675,1.28,3.121,2.722,4.313,4.033c0.105,0.12,0.216,0.236,0.331,0.35       c-1.649,3.368-1.316,8.11-2.817,9.24c-0.1,0.27-0.191,0.542-0.279,0.816l-0.127,0.414c-0.039,0.129-0.02,0.085-0.03,0.136       c-0.014,0.114-0.012,0.223-0.011,0.321c-0.001,0.203,0.001,0.338-0.208,0.608c-0.426,0.376-0.951,0.998-1.17,1.437       c-0.211,0.417-0.116,0.652,0.891-0.337c0.282-0.141,0.748-0.672,0.64-0.463c0.022,0.01-0.136,0.267-0.439,0.818       c1.301-1.873,1.429-2.223,1.362-2.079c-0.086,0.158-0.363,0.81-0.388,1.315c0.195-0.295,0.258-0.089,0.474-0.087       c0.1,0.007,0.221-0.024,0.318-0.123c0.049-0.049,0.09-0.114,0.113-0.195c0.012-0.041,0.019-0.085,0.02-0.134       c0.005-0.051-0.042-0.072,0.103-0.242c0.548-0.328,1.057-0.713,1.549-1.121l0.729-0.626l0.361-0.319l0.193-0.168l0.354-0.284       c1.874-1.505,3.919-3.072,5.871-4.104l0.062,0.057c1.953,1.701,3.738,3.271,5.542,4.652l0.505,0.383l0.394,0.279       c0.265,0.182,0.538,0.353,0.819,0.511c0.563,0.316,1.162,0.582,1.808,0.781c0.039,0.01,0.088,0.027,0.117,0.031l0.036-0.023       l0.063-0.041l0.095-0.061c0.052-0.031,0.082-0.042,0.106-0.033c0.046,0.018,0.069,0.118,0.121,0.263       c0.082,0.273,0.364,0.783,0.446,0.614c0.521,1.244,0.867,1.355,0.823,1.042c0.011-0.272-0.367-0.967,0.152-0.279       c0.033-0.034,0.267,0.237,0.579,0.585c0.132,0.106,0.271,0.194,0.252,0.071c-0.017-0.118-0.192-0.446-0.641-1.025       c-0.278-0.434-0.527-0.768-0.605-0.927c-0.081-0.168,0.009-0.162,0.325-0.172c-1.41-0.835-1.158-0.512-0.828-0.629       c0.173-0.035,0.381-0.134,0.499-0.273l0.04-0.052l0.017-0.028l-0.013-0.109c-0.019-0.146-0.044-0.289-0.076-0.431       c-0.065-0.281-0.163-0.553-0.308-0.807c0.035-0.585-0.034-1.135-0.166-1.661l-0.109-0.391l-0.158-0.469       c-0.153-0.442-0.318-0.882-0.491-1.324c-0.683-1.753-1.5-3.61-2.029-5.403l0.531-0.35c1.403-1.263,3.3-2.326,4.957-3.289       l0.621-0.366l0.397-0.218c0.24-0.134,0.474-0.277,0.695-0.436c0.442-0.318,0.838-0.698,1.148-1.191       c0.232-0.14,0.455-0.293,0.67-0.455c0.146-0.109,0.103-0.084,0.143-0.122l0.06-0.077c0.073-0.106,0.116-0.22,0.162-0.311       c0.105-0.191,0.179-0.258,0.958-0.308c-0.532-0.275-0.135-0.284,0.581-0.474c0.669-0.157,1.652-0.491,1.063-0.53       c0.508-0.359,0.701-0.59,1.885-1.162l0.038-0.014c2.25-0.835,1.829-0.904,1.027-0.749c-0.842,0.154-2.069,0.531-2.487,0.588       c-0.146-0.09-0.935,0.149-1.382,0.269c-0.478,0.12-0.616,0.118-0.28-0.453c-0.247-0.067-0.395-0.287-0.708-0.404       c-0.296-0.117-0.754-0.132-1.189,0.208c-0.186,0.063-0.321-0.06-0.506-0.242c-0.033-0.045-0.095-0.095-0.216-0.146       l-0.303-0.157c-0.202-0.106-0.404-0.212-0.604-0.303c-0.802-0.362-1.591-0.475-2.365,0.646       c-0.096,0.025-0.191,0.04-0.288,0.047c-0.089,0.007-0.281,0.006-0.415-0.002c-0.297-0.016-0.588-0.059-0.87-0.117       c-0.565-0.116-1.086-0.294-1.576-0.44c-1.005-0.292-1.803-0.454-3.382,0.265l-0.043-0.015       c-0.846-0.364-1.202-1.608-1.348-2.785c-0.149-1.187-0.113-2.389-0.356-3.236c-0.332-1.298-0.65-2.542-0.954-3.73       c-2.692-10.704-3.825-16.971-2.965-17.25c0.958-0.309,4.243,6.82,9.096,19.307c0.172,0.406,0.54,0.521,0.779,0.691       c0.24,0.172,0.325,0.313,0.05,1.134l0.006,0.016c0.346-0.005,0.808-0.229,1.144-0.368c0.173-0.069,0.323-0.117,0.466-0.105       c0.071,0.006,0.142,0.026,0.215,0.067c0.051,0.02,0.042,0.045,0.146,0.075c0.097,0.031,0.192,0.066,0.289,0.109       c0.774-0.782,1.563-0.855,2.364-0.723c0.2,0.033,0.401,0.079,0.604,0.13l0.304,0.079l0.16,0.041l0.252,0.04       c0.669,0.105,1.315,0.199,1.975,0.218c1.347-0.041,2.657,0.064,3.978,0.101c1.335,0.036,2.678,0.004,4.467-0.31       c1.977-0.456,3.436-0.345,4.688-0.201c1.29,0.144,2.37,0.323,4.563,0.001c1.031,0.958,3.943,0.705,9.988-0.182v0.007       c-2.771,1.425-3.829,2.25-4.735,3.105c-0.882,0.837-1.616,1.706-3.086,2.745c-3.024,1.297-4.436,2.184-5.527,3.152       c-1.069,0.951-1.822,1.986-2.932,3.144c-1.143,1.151-2.799,2.281-4.399,3.344c-0.806,0.535-1.607,1.061-2.385,1.608       l-0.58,0.416l-0.497,0.375c-0.21,0.169-0.413,0.349-0.606,0.543c-0.479,0.26-0.926,0.569-1.357,0.902l-0.639,0.516       c-0.09,0.077-0.244,0.202-0.279,0.242l-0.047,0.077c-0.127,0.209-0.163,0.359-0.465,0.426l0.065,0.077       c0.41,0.291,0.643,0.368,0.692,0.444c0.013,0.02,0.015,0.04,0.006,0.066c-0.022-0.042,0.038,0.178,0.059,0.288l0.077,0.402       c0.09,0.54,0.132,1.098,0.117,1.677c0.145,0.254,0.277,0.514,0.399,0.777l0.177,0.397l0.042,0.101l0.07,0.188l0.139,0.38       c0.366,1.018,0.703,2.055,1.023,3.086c0.644,2.071,1.211,4.097,1.888,6.156c1.042,2.256,1.742,4.445,2.336,6.479       c0.601,2.057,1.094,3.955,1.913,6.211c0.622,1.58,0.871,2.755,1.03,3.764c0.162,1.02,0.235,1.872,0.603,3.106       c-1.279-0.978-2.171-1.451-2.599-1.082c-1.713-1.121-3.706-2.647-5.632-4.111c-1.939-1.474-3.811-2.884-5.641-4.033       c-3.929-3.104-7.539-5.993-11.482-8.317c-0.286-0.694-0.667-1.26-1.115-1.734c-0.224-0.238-0.465-0.453-0.719-0.649       c-0.128-0.099-0.259-0.192-0.393-0.281l-0.202-0.132c-0.074-0.048-0.057-0.026-0.09-0.041       c-0.356-0.108-0.718,0.116-0.827,0.414l-0.004,0.006c-0.117,0.358-0.132,0.435-0.227,0.467l-1.416,0.91l-1.64,0.995       l-0.591,0.464l-0.72,0.551l-1.451,1.092c-0.975,0.713-1.948,1.425-2.919,2.136c-1.945,1.4-3.871,2.747-5.752,4.053       c-2.033,1.769-3.9,2.921-5.608,3.982c-1.741,1.086-3.325,2.083-5.658,4.173c-1.682,1.516-3.025,2.471-4.157,3.177       c0.652-1.654,1.309-3.318,1.955-4.96c0.586-1.546,1.021-2.868,1.12-3.855c0.32-1.71,0.774-3.665,1.463-5.836       c0.685-2.162,1.603-4.539,2.771-6.858c0.684-2.09,1.772-4.267,2.601-6.187c0.419-0.973,0.779-1.904,1.038-2.868       c0.059-0.22,0.139-0.531,0.16-0.686c0.018-0.146,0.029-0.294,0.031-0.445c0.005-0.302-0.023-0.613-0.093-0.938       c0.102-0.544,0.123-1.112,0.134-1.682l0.008-0.427l0.004-0.213c0.005-0.08,0.006-0.147-0.02-0.134       c-0.07-0.038-0.139-0.063-0.193-0.078c-0.21-0.08-0.247,0.132,0.829-0.326c0.088-0.044,0.179-0.09,0.273-0.138       c-0.461,0.003-0.296-0.203-0.377-0.527l-0.029-0.117c0.011-0.007-0.036-0.056-0.092-0.109l-0.147-0.146       c-0.199-0.192-0.405-0.374-0.623-0.538c-0.436-0.328-0.919-0.585-1.494-0.714c-0.102-0.32-0.231-0.601-0.384-0.85       c-0.045-0.102-0.219-0.284-0.381-0.448c-0.16-0.162-0.323-0.314-0.49-0.461c-0.665-0.585-1.398-1.069-2.199-1.542       c-1.579-0.929-3.509-1.874-4.984-2.975c-1.288-1.124-2.382-2.177-3.619-3.178c-1.248-1.01-2.642-1.969-4.835-3.125       c-2.285-1.183-3.556-2.231-4.496-3.119c-0.967-0.907-1.606-1.656-3.323-2.74l-0.079-0.042c0.303-0.441,2.955-0.136,5.245,0.152       c2.346,0.288,4.337,0.559,4.775,0.049c1.757,0.106,3.185,0.074,4.656,0.056c1.461-0.018,2.965-0.021,4.596,0.144       c0.229-1.079,2.026-1.073,3.72-0.775c1.746,0.298,3.396,0.889,4.724,0.984c0.684,0.079,1.321,0.029,1.98-0.064l0.247-0.037       l0.154-0.04l0.304-0.085c0.203-0.055,0.405-0.109,0.604-0.163c0.802-0.19,1.591-0.215,2.365,0.604       c0.507-0.405,0.446-0.623,0.589-0.714c0.1-0.091,0.203-0.056,0.354,0.044c0.283,0.2,0.808,0.66,1.319,0.884l0.009-0.003       c0.28-0.096,0.265-0.612,0.259-0.976c0.008-0.404,0.004-0.596,0.565-0.842c-0.684-1.625,1.406-2.298,1.403-3.585       c1.1-0.932,0.773-2.262,1.306-3.251c0.093-1.131,0.501-2.098,1.202-2.904c0.391-0.907,0.756-1.755,1.096-2.546       C429.676,215.287,431.084,212.793,431.659,212.978z"></path></g></g></g><g><g><g><path d="M139.383,147.063c0,0.301-0.307,0.613-0.852,0.928c-0.272,0.166-0.607,0.298-0.988,0.49       c-0.38,0.2-0.812,0.404-1.29,0.61c-0.309,0.162-0.639,0.334-0.991,0.519c-0.165,0.124-0.332,0.25-0.51,0.352       c-0.172,0.121-0.356,0.216-0.567,0.254c-0.701-0.581-0.258,1.638-1.138,0.727c-0.561-0.106-0.893,0.362-1.167,0.872       c-0.264,0.497-1.17,0.088-1.165,1.033c0.248,0.784-0.206,0.585-0.672,0.456c-0.454-0.13-0.894-0.156-0.456,0.748       c-0.146,0.667-0.584,1-1.057,1.375c-0.659-0.178-0.848,0.088-0.896,0.441c-0.046,0.358,0.036,0.795-0.045,1.106       c-1.502-0.247-1.415,0.712-0.759,1.725c-2.07-0.294-2.094,0.681-0.575,1.858c-0.086,0.316-0.305,0.598-0.473,0.909       c-0.17,0.308-0.224,0.664,0.165,1.075c0.022,0.348,0.064,0.695,0.107,1.04c0.051,0.347,0.04,0.683-0.154,1.029       c0.625,0.359,0.999,0.667,1.011,0.996c0.013,0.165-0.053,0.335-0.187,0.519c-0.113,0.181-0.296,0.375-0.546,0.591       c1.464,0.493,1.088,1.139,0.582,2.084c-0.243,0.464,0.183,0.727,0.547,0.966c0.382,0.242,0.755,0.438,0.404,1.032       c0.1,0.369,0.413,0.628,0.646,0.923c0.229,0.3,0.503,0.562,0.64,0.936c0,0.239-0.005,0.491,0.023,0.725       c0.042,0.222,0.107,0.433,0.218,0.606c0.212,0.353,0.619,0.554,1.363,0.324c0.407,0.133,0.806,0.248,1.164,0.403       c0.352,0.165,0.581,0.478,0.728,0.98c1.442-0.851,1.665-0.005,2.132,1.046c0.423,0.005,0.711,0.373,1.076,0.595       c0.36,0.212,0.759,0.403,1.241,0.062c0.383,0.166,0.814,0.083,1.224,0.018c0.419-0.099,0.809-0.139,1.22,0.215       c0.412,0.197,0.85,0.397,1.282,0.436c0.426,0.005,0.841-0.188,1.162-0.668c0.305-0.542,0.678-0.567,1.116-0.486       c0.43,0.074,0.886,0.125,1.2-0.17c0.646,0.53,0.981,0.185,1.248-0.175c0.281-0.355,0.408-0.898,0.884-0.871       c0.313-0.238,0.717-0.338,1.121-0.469c0.409-0.119,0.735-0.377,0.771-0.914c0.214-0.342,0.374-0.715,0.602-1.014       c0.117-0.147,0.255-0.274,0.426-0.375c0.158-0.113,0.34-0.207,0.576-0.267c-0.636-0.952-0.321-1.109,0.147-1.246       c0.464-0.122,1.204-0.153,1.138-0.613c0.558-0.134,0.725-0.497,0.753-0.888c0.017-0.401-0.048-0.808,0.198-1.11       c-0.094-0.408,0.221-0.685,0.505-0.998c0.302-0.303,0.438-0.673,0.076-1.087c0.072-0.17,0.081-0.35,0.067-0.529l-0.135-0.54       c-0.088-0.355-0.04-0.684,0.346-1.038c-0.556-0.337-0.346-0.665-0.095-1.035c0.243-0.362,0.462-0.757,0.048-1.035       c-0.032-0.339-0.122-0.663-0.207-0.983c-0.082-0.321-0.095-0.657-0.102-1c0.683-0.57,0.624-0.942,0.369-1.201       c-0.246-0.269-0.769-0.393-0.945-0.657c-0.099-0.7-1.423-0.588-0.758-1.725c-0.246-0.549-0.013-1.549-0.941-1.548       c-0.29-0.132-0.03-0.757,0.025-1.239c0.066-0.48-0.123-0.767-1.082-0.136c-0.344-0.034-0.248-0.555-0.286-0.956       c-0.039-0.392-0.185-0.695-0.841-0.248c-1.196,0.8-0.747-0.698-1.165-1.033c-0.372-0.352-0.793-0.584-1.167-0.872       C142.208,148.567,139.362,148.054,139.383,147.063c0-0.251,0.214-0.488,0.651-0.708c0.436-0.201,1.103-0.471,1.981-0.537       c1.751-0.237,4.469-0.093,7.6,1.288c0.593,0.276,1.91-0.342,1.904,0.97c0.294,0.223,0.732,0.271,1.133,0.398       c0.394,0.131,0.724,0.376,0.796,0.895c1.689-0.61,1.403,0.967,1.893,1.638c0.65,0.598,0.734,1.618,1.784,2.002       c1.25,0.323,0.62,1.804,1.567,2.387c-0.411,1.287,0.114,2.022,1.304,2.73c-0.271,0.63-0.127,1.106,0.169,1.574       c0.298,0.463,0.682,0.935,0.732,1.479c-0.635,0.656-0.641,1.17-0.457,1.692c0.175,0.52,0.6,1.044,0.914,1.608       c0.297,0.564,0.178,1.15,0.083,1.724c-0.054,0.288-0.112,0.575-0.144,0.864c-0.053,0.289-0.076,0.58-0.033,0.885       c-0.412,1.118-0.096,2.429-0.668,3.561c0.116,0.681,0.114,1.363-0.07,1.981c-0.197,0.611-0.634,1.136-1.272,1.523       c-0.052,0.69-0.412,1.239-0.768,1.781c-0.354,0.548-0.826,1.012-1.219,1.534c-0.083,0.348-0.228,0.657-0.418,0.931       c-0.204,0.262-0.444,0.497-0.695,0.72c-0.497,0.454-1.04,0.85-1.498,1.342c-0.399,0.565-1.146,0.742-1.824,0.948       c-0.676,0.22-1.197,0.577-1.367,1.587c-1.067,0.925-2.516,1.149-3.694,1.943c-0.702,0.143-1.383,0.322-2.069,0.48       c-0.689,0.149-1.349,0.405-2.011,0.751c-0.854-0.663-1.531-0.697-2.213-0.5c-0.679,0.162-1.362,0.592-2.09,0.927       c-0.726,0.197-1.468,0.216-2.192,0.142c-0.723-0.108-1.426-0.347-2.112-0.569c-0.72-0.053-1.418-0.241-2.106-0.428       c-0.687-0.196-1.33-0.52-1.974-0.803c-0.755-0.019-1.313-0.526-1.875-0.947c-0.572-0.416-1.058-0.918-1.82-0.996       c-0.782-0.061-1.229-0.657-1.665-1.2c-0.45-0.538-0.809-1.125-1.526-1.335c-0.664-0.272-1.258-0.645-1.723-1.138       c-0.236-0.243-0.441-0.513-0.603-0.813c-0.147-0.312-0.243-0.663-0.285-1.041c-0.396-0.525-0.498-1.246-0.647-1.894       c-0.157-0.65-0.488-1.148-1.34-1.421c-0.406-0.501-1.179-0.852-1.618-1.38c-0.423-0.527-0.562-1.21,0.274-2.124       c-0.437-0.511-0.33-1.191-0.269-1.817c0.04-0.629,0.164-1.23-0.401-1.744c0.352-0.35,0.515-0.656,0.557-0.946       c0.064-0.292,0.012-0.568-0.089-0.844c-0.19-0.549-0.622-1.114-0.562-1.684c0.179-0.565,0.419-1.107,0.537-1.643       c0.125-0.537,0.19-1.063-0.079-1.658c-0.308-0.605-0.087-1.131,0.22-1.606c0.305-0.479,0.63-0.923,0.682-1.448       c-0.261-0.633,0.206-1.035,0.646-1.395c0.432-0.372,0.918-0.668,0.658-1.336c0.577-0.797,0.815-1.767,1.567-2.387       c-0.642-0.985-0.326-1.382,0.183-1.574c0.516-0.195,1.233-0.181,1.602-0.428c0.404-0.217,0.423-0.768,0.577-1.217       c0.144-0.45,0.473-0.748,1.316-0.421c-0.248-0.87,0.024-1.212,0.465-1.3c0.449-0.085,1.039,0.05,1.464,0.008       c0.834-0.064,0.845-1.392,1.904-0.97c0.023-1.384,1.478-0.055,1.827-0.677c0.847,0.413,1.11-0.417,1.704-0.424       c0.213-0.215,0.454-0.347,0.712-0.393c0.264-0.028,0.545,0.034,0.832,0.176c0.489-0.032,0.938-0.073,1.359-0.064       c0.637,0.035,1.192,0.088,1.667,0.157c0.476,0.077,0.875,0.224,1.19,0.343C139.075,146.481,139.383,146.762,139.383,147.063z"></path></g></g></g><g><g><g><path d="M388.281,95.268c0,0.301-0.307,0.613-0.852,0.928c-0.272,0.165-0.607,0.298-0.989,0.489       c-0.38,0.199-0.812,0.404-1.289,0.609c-0.31,0.162-0.64,0.334-0.992,0.518c-0.165,0.124-0.332,0.249-0.511,0.352       c-0.172,0.121-0.356,0.215-0.567,0.253c-0.7-0.582-0.26,1.638-1.139,0.725c-0.561-0.107-0.894,0.36-1.168,0.87       c-0.265,0.496-1.171,0.086-1.167,1.031c0.247,0.784-0.206,0.584-0.673,0.454c-0.453-0.13-0.893-0.157-0.455,0.747       c-0.148,0.666-0.585,0.999-1.059,1.373c-0.658-0.179-0.847,0.087-0.896,0.439c-0.047,0.358,0.034,0.793-0.046,1.106       c-1.503-0.25-1.414,0.71-0.759,1.721c-2.07-0.296-2.091,0.681-0.574,1.854c-0.082,0.316-0.305,0.597-0.472,0.908       c-0.08,0.156-0.137,0.32-0.132,0.497c0.024,0.181,0.112,0.374,0.299,0.577c0.023,0.348,0.062,0.693,0.109,1.039       c0.052,0.347,0.039,0.682-0.155,1.028c0.632,0.357,1,0.666,1.014,0.996c0.014,0.165-0.056,0.336-0.186,0.52       c-0.112,0.181-0.297,0.376-0.546,0.592c1.464,0.493,1.089,1.141,0.583,2.086c-0.243,0.464,0.182,0.727,0.547,0.966       c0.383,0.242,0.755,0.438,0.403,1.032c0.282,0.707,0.998,1.137,1.285,1.857c0,0.238-0.006,0.491,0.022,0.724       c0.042,0.222,0.107,0.432,0.218,0.606c0.213,0.353,0.619,0.553,1.362,0.323c0.407,0.132,0.806,0.247,1.164,0.402       c0.351,0.165,0.58,0.477,0.727,0.979c1.441-0.852,1.664-0.006,2.132,1.045c0.423,0.005,0.711,0.372,1.075,0.594       c0.36,0.212,0.76,0.403,1.241,0.062c0.383,0.165,0.814,0.082,1.224,0.017c0.419-0.099,0.81-0.139,1.221,0.215       c0.412,0.198,0.85,0.397,1.282,0.437c0.427,0.005,0.842-0.188,1.163-0.668c0.305-0.541,0.678-0.567,1.116-0.486       c0.43,0.074,0.886,0.125,1.2-0.169c0.646,0.53,0.981,0.185,1.247-0.175c0.28-0.355,0.408-0.897,0.884-0.87       c0.313-0.238,0.717-0.337,1.12-0.468c0.409-0.119,0.735-0.376,0.771-0.913c0.214-0.342,0.373-0.714,0.601-1.013       c0.117-0.147,0.255-0.273,0.426-0.374c0.158-0.112,0.34-0.206,0.576-0.266c-0.638-0.952-0.322-1.108,0.146-1.245       c0.465-0.123,1.204-0.152,1.139-0.613c0.558-0.133,0.724-0.497,0.753-0.888c0.018-0.402-0.048-0.808,0.197-1.11       c-0.092-0.408,0.222-0.685,0.505-0.998c0.302-0.303,0.44-0.673,0.077-1.088c0.072-0.17,0.08-0.35,0.066-0.529       c-0.032-0.182-0.096-0.364-0.133-0.541c-0.087-0.355-0.044-0.686,0.348-1.039c-0.556-0.337-0.346-0.664-0.096-1.033       c0.249-0.361,0.464-0.755,0.051-1.033l-0.077-0.5c-0.047-0.161-0.091-0.321-0.128-0.482c-0.081-0.321-0.097-0.655-0.1-0.999       c0.683-0.569,0.624-0.94,0.368-1.199c-0.242-0.27-0.768-0.392-0.943-0.656c-0.1-0.698-1.422-0.585-0.758-1.721       c-0.244-0.549-0.015-1.547-0.941-1.545c-0.29-0.131-0.03-0.756,0.024-1.238c0.065-0.481-0.124-0.766-1.082-0.134       c-0.344-0.033-0.248-0.554-0.287-0.956c-0.039-0.392-0.187-0.694-0.842-0.246c-1.194,0.803-0.747-0.697-1.166-1.031       c-0.373-0.351-0.794-0.583-1.169-0.87C391.104,96.772,388.26,96.259,388.281,95.268c0-0.251,0.214-0.488,0.651-0.708       c0.436-0.201,1.102-0.471,1.979-0.538c1.75-0.238,4.467-0.098,7.599,1.277c0.593,0.275,1.908-0.345,1.904,0.966       c0.295,0.222,0.733,0.269,1.134,0.396c0.395,0.131,0.725,0.375,0.797,0.893c1.689-0.613,1.404,0.965,1.896,1.636       c0.649,0.598,0.736,1.617,1.786,2.001c1.252,0.321,0.621,1.804,1.569,2.387c-0.409,1.288,0.112,2.024,1.305,2.732       c-0.275,0.631-0.127,1.107,0.168,1.575c0.151,0.231,0.311,0.473,0.464,0.708c0.129,0.246,0.234,0.502,0.268,0.772       c-0.637,0.655-0.639,1.169-0.46,1.692c0.175,0.52,0.601,1.045,0.914,1.61c0.291,0.565,0.176,1.149,0.08,1.722       c-0.055,0.288-0.11,0.574-0.146,0.863c-0.054,0.288-0.076,0.579-0.033,0.884c-0.411,1.116-0.097,2.426-0.67,3.557       c0.117,0.681,0.116,1.363-0.069,1.98c-0.197,0.611-0.633,1.136-1.271,1.522c-0.186,1.349-1.188,2.299-1.987,3.315       c-0.083,0.347-0.228,0.657-0.418,0.931c-0.204,0.263-0.444,0.497-0.695,0.72c-0.497,0.454-1.04,0.85-1.498,1.342       c-0.399,0.565-1.147,0.742-1.824,0.947c-0.677,0.22-1.197,0.576-1.368,1.587c-1.067,0.925-2.517,1.147-3.694,1.941       c-0.701,0.143-1.383,0.321-2.068,0.478c-0.689,0.149-1.349,0.405-2.011,0.75c-0.854-0.663-1.53-0.697-2.212-0.5       c-0.679,0.162-1.361,0.592-2.088,0.926c-0.726,0.197-1.468,0.216-2.19,0.143c-0.723-0.108-1.425-0.346-2.11-0.568       c-0.72-0.053-1.418-0.24-2.105-0.427c-0.687-0.196-1.329-0.519-1.974-0.801c-0.755-0.018-1.313-0.525-1.875-0.946       c-0.572-0.415-1.058-0.917-1.82-0.995c-0.782-0.061-1.229-0.656-1.665-1.199c-0.45-0.538-0.81-1.125-1.526-1.334       c-0.664-0.271-1.258-0.644-1.724-1.137c-0.235-0.243-0.441-0.513-0.604-0.813c-0.147-0.312-0.243-0.663-0.285-1.042       c-0.396-0.525-0.497-1.245-0.646-1.894c-0.156-0.65-0.489-1.147-1.341-1.421c-0.405-0.5-1.178-0.852-1.617-1.38       c-0.422-0.526-0.561-1.209,0.276-2.123c-0.438-0.51-0.33-1.19-0.269-1.815c0.04-0.629,0.161-1.229-0.401-1.742       c0.352-0.35,0.514-0.655,0.557-0.945c0.061-0.291,0.011-0.567-0.092-0.843c-0.191-0.549-0.618-1.111-0.564-1.681       c0.179-0.566,0.419-1.108,0.536-1.644c0.12-0.538,0.189-1.063-0.082-1.658c-0.146-0.3-0.172-0.585-0.127-0.854       c0.064-0.265,0.197-0.514,0.346-0.753c0.304-0.479,0.632-0.923,0.681-1.449c-0.261-0.633,0.207-1.035,0.647-1.395       c0.429-0.374,0.918-0.669,0.657-1.337c0.578-0.797,0.815-1.768,1.569-2.387c-0.642-0.987-0.323-1.383,0.185-1.575       c0.517-0.194,1.233-0.18,1.602-0.426c0.405-0.216,0.425-0.767,0.579-1.216c0.145-0.451,0.474-0.747,1.317-0.419       c-0.247-0.871,0.026-1.212,0.467-1.3c0.449-0.084,1.039,0.052,1.464,0.011c0.834-0.063,0.847-1.391,1.905-0.966       c0.024-1.384,1.477-0.053,1.826-0.674c0.847,0.415,1.11-0.415,1.704-0.421c0.214-0.215,0.455-0.346,0.712-0.392       c0.264-0.027,0.545,0.035,0.832,0.178c0.488-0.032,0.938-0.072,1.358-0.063c0.636,0.036,1.191,0.089,1.666,0.159       c0.476,0.078,0.874,0.224,1.189,0.343C387.974,94.686,388.281,94.966,388.281,95.268z"></path></g></g></g><g><g><g><path d="M494.563,134.104c0,0.603-0.31,1.182-0.875,1.716c-0.094,0.089-0.195,0.177-0.304,0.263       c-0.108,0.158-0.224,0.33-0.345,0.255c-0.122-0.794-0.251,1.476-0.386,0.247c-0.135-0.355-0.275-0.026-0.423,0.239       c-0.147,0.277-0.301-0.504-0.461,0.229c-0.159,1.55-0.324-1.719-0.495,0.219c-0.171,0.421-0.348,0.306-0.53,0.208       c-0.182-1.183-0.369-0.009-0.562,0.198c-0.193-1.429-0.391-0.806-0.594,0.186c-0.203-1.957-0.41-1.656-0.623,0.175       c-0.212,0.063-0.43-0.698-0.65,0.162c-0.222,0.129-0.448,0.494-0.678,0.149c-0.23,1.31-0.465,1.253-0.703,0.135       c-0.238,1.405-0.48,0.847-0.727,0.122c-0.246-0.786-0.495,1.232-0.749,0.107c-0.253-0.086-0.51,0.32-0.77,0.091       c-0.26-0.577-0.522-1.223-0.789,0.077c-0.266,0.347-0.535,0.819-0.807,0.061c-0.271,1.496-0.546,0.833-0.823,0.043       c-0.277,0.248-0.557-0.813-0.838,0.027c-0.282-0.233-0.566,0.659-0.853,0.009c-0.285-0.452-0.569-0.884-0.852-0.009       c-0.281,0.959-0.561-0.398-0.838-0.027c-0.277-1.401-0.552,0.458-0.823-0.043c-0.271,0.136-0.541-0.811-0.807-0.061       c-0.267,0.258-0.529,0.53-0.789-0.077c-0.26,2.159-0.517-0.554-0.77-0.091c-0.254-0.911-0.503,0.135-0.749-0.107       c-0.246,0.402-0.488-0.995-0.727-0.122c-0.238-0.182-0.473,0.696-0.703-0.135c-0.23,1.069-0.456-0.902-0.678-0.149       c-0.222-0.006-0.438,0.068-0.65-0.162c-0.213-1.682-0.42-0.287-0.623-0.174c-0.203-0.182-0.4,0.955-0.594-0.187       c-0.192-0.136-0.38-0.877-0.562-0.198c-0.183,0.248-0.359-2.449-0.53-0.208c-0.171,0.401-0.336-1.723-0.495-0.219       c-0.16,1.386-0.313-0.171-0.461-0.229c-0.146-0.082-0.286-0.162-0.423-0.239c-1.214-0.729-1.909-1.577-1.909-2.481       c0-1.006,0.858-1.941,2.332-2.72c0.147-0.078,0.301-1.257,0.461-0.229c0.159,0.005,0.324-0.899,0.495-0.219       c0.171-1.562,0.348-0.287,0.53-0.208c0.182-0.078,0.369,0.426,0.562-0.198c0.193-0.906,0.391,0.45,0.594-0.187       c0.203,0.961,0.41,0.709,0.623-0.174c0.212,0.936,0.429-0.198,0.65-0.162c0.222,1.441,0.447,0.429,0.678-0.149       c0.23-0.528,0.465,0.216,0.703-0.136c0.238,0.278,0.48-0.366,0.727-0.122c0.246-0.676,0.495-0.929,0.749-0.106       c0.253-0.465,0.51-0.092,0.77-0.092c0.26-0.572,0.522,0.072,0.789-0.076c0.266-0.299,0.535,1.532,0.807-0.061       c0.271-0.203,0.546,0.25,0.823-0.043c0.277,0.198,0.557,0.412,0.838-0.028c0.282,1.57,0.566,0.603,0.852-0.008       c0.286-0.451,0.57-0.222,0.853,0.008c0.281-0.156,0.561-0.075,0.838,0.028c0.277-0.464,0.552,0.674,0.823,0.043       c0.271-0.667,0.541,0.716,0.807,0.061c0.267-0.455,0.529-0.704,0.789,0.076c0.26-0.001,0.517,1.43,0.77,0.092       c0.254-0.305,0.503-2.083,0.749,0.106c0.246-0.546,0.488,1.054,0.727,0.122c0.238,1.601,0.473,0.082,0.703,0.136       c0.229,0.309,0.456,0.848,0.678,0.149c0.221-0.764,0.438,0.417,0.65,0.162c0.213-0.917,0.42,1.2,0.623,0.174       c0.203,0.208,0.4-0.139,0.594,0.187c0.192-2.158,0.38,0.011,0.562,0.198c0.183,0.311,0.359-1.429,0.53,0.208       c0.171-1.632,0.336-0.221,0.495,0.219c0.16,0.475,0.313-0.689,0.461,0.229c0.147-1.148,0.288,0.635,0.423,0.239       c0.135,0.761,0.264,0.043,0.386,0.247c0.121-0.258,0.236-0.166,0.345,0.256c0.108,0.086,0.21,0.174,0.304,0.263       C494.253,132.922,494.563,133.5,494.563,134.104z"></path></g></g></g><g><g><g><path d="M480.655,148.194c-0.603,0-1.182-0.31-1.716-0.875c-0.089-0.095-0.177-0.196-0.264-0.304       c-0.157-0.109-0.329-0.224-0.255-0.346c0.794-0.122-1.476-0.25-0.247-0.386c0.355-0.135,0.026-0.276-0.238-0.424       c-0.277-0.147,0.504-0.301-0.229-0.461c-1.551-0.159,1.719-0.325-0.22-0.496c-0.421-0.171-0.306-0.348-0.208-0.53       c1.183-0.182,0.009-0.37-0.198-0.563c1.429-0.193,0.806-0.391-0.186-0.594c1.956-0.203,1.655-0.411-0.175-0.624       c-0.063-0.212,0.697-0.43-0.162-0.652c-0.129-0.222-0.494-0.448-0.148-0.678c-1.311-0.23-1.254-0.465-0.136-0.704       c-1.405-0.238-0.847-0.481-0.122-0.727c0.786-0.247-1.232-0.497-0.106-0.75c0.087-0.253-0.32-0.51-0.091-0.77       c0.576-0.26,1.223-0.524-0.077-0.79c-0.347-0.267-0.819-0.536-0.061-0.808c-1.495-0.272-0.833-0.547-0.044-0.824       c-0.247-0.277,0.813-0.557-0.026-0.839c0.233-0.282-0.659-0.566-0.009-0.853c0.452-0.287,0.885-0.571,0.009-0.853       c-0.959-0.282,0.398-0.562,0.026-0.839c1.402-0.277-0.457-0.552,0.044-0.824c-0.136-0.272,0.812-0.542,0.061-0.808       c-0.258-0.266-0.53-0.53,0.077-0.79c-2.159-0.26,0.554-0.517,0.091-0.771c0.911-0.253-0.135-0.503,0.106-0.75       c-0.402-0.246,0.996-0.489,0.122-0.727c0.182-0.239-0.696-0.473,0.136-0.704c-1.069-0.23,0.902-0.457,0.148-0.679       c0.006-0.222-0.068-0.439,0.162-0.651c1.682-0.213,0.287-0.42,0.174-0.624c0.182-0.203-0.955-0.401,0.187-0.594       c0.136-0.193,0.878-0.381,0.198-0.563c-0.248-0.182,2.449-0.359,0.208-0.53c-0.401-0.171,1.724-0.337,0.22-0.496       c-1.387-0.16,0.171-0.313,0.229-0.461c0.082-0.146,0.161-0.287,0.238-0.424c0.729-1.215,1.576-1.911,2.481-1.911       c1.007,0,1.94,0.86,2.72,2.335c0.078,0.147,1.258,0.301,0.229,0.461c-0.005,0.159,0.9,0.325,0.22,0.496       c1.562,0.171,0.287,0.348,0.208,0.53c0.078,0.182-0.426,0.37,0.197,0.563c0.906,0.193-0.449,0.391,0.188,0.594       c-0.961,0.203-0.709,0.411,0.174,0.624c-0.936,0.212,0.198,0.43,0.162,0.651c-1.441,0.222-0.43,0.448,0.148,0.679       c0.528,0.23-0.217,0.465,0.136,0.704c-0.278,0.238,0.366,0.481,0.122,0.727c0.676,0.247,0.928,0.496,0.105,0.75       c0.465,0.253,0.092,0.511,0.092,0.771c0.572,0.26-0.071,0.523,0.076,0.79c0.3,0.266-1.531,0.536,0.061,0.808       c0.203,0.272-0.25,0.547,0.044,0.824c-0.198,0.277-0.412,0.557,0.028,0.839c-1.57,0.282-0.604,0.566,0.008,0.853       c0.451,0.286,0.223,0.57-0.008,0.853c0.156,0.282,0.074,0.562-0.028,0.839c0.464,0.277-0.675,0.552-0.044,0.824       c0.667,0.272-0.715,0.541-0.061,0.808c0.455,0.266,0.705,0.53-0.076,0.79c0.002,0.26-1.43,0.517-0.092,0.77       c0.305,0.253,2.084,0.503-0.105,0.75c0.546,0.246-1.055,0.489-0.122,0.727c-1.601,0.239-0.081,0.473-0.136,0.704       c-0.309,0.23-0.848,0.457-0.148,0.678c0.764,0.222-0.418,0.439-0.162,0.652c0.918,0.213-1.2,0.42-0.174,0.624       c-0.209,0.203,0.139,0.401-0.188,0.594c2.158,0.193-0.011,0.381-0.197,0.563c-0.311,0.182,1.429,0.359-0.208,0.53       c1.632,0.171,0.221,0.336-0.22,0.496c-0.475,0.16,0.689,0.313-0.229,0.461c1.148,0.147-0.635,0.289-0.238,0.424       c-0.762,0.135-0.043,0.264-0.247,0.386c0.259,0.122,0.165,0.237-0.256,0.345c-0.087,0.108-0.174,0.21-0.263,0.305       C481.836,147.885,481.26,148.194,480.655,148.194z"></path></g></g></g><g><g><g><path d="M283.91,42.614c0,0.603-0.309,1.182-0.875,1.716c-0.094,0.089-0.195,0.177-0.304,0.263       c-0.108,0.158-0.224,0.33-0.345,0.255c-0.122-0.794-0.25,1.476-0.386,0.247c-0.135-0.355-0.275-0.026-0.423,0.239       c-0.147,0.277-0.301-0.504-0.46,0.229c-0.159,1.55-0.325-1.719-0.496,0.219c-0.171,0.421-0.348,0.306-0.529,0.208       c-0.183-1.183-0.37-0.009-0.563,0.198c-0.192-1.429-0.391-0.806-0.593,0.186c-0.203-1.957-0.41-1.656-0.623,0.175       c-0.212,0.063-0.43-0.698-0.65,0.162c-0.222,0.129-0.448,0.494-0.678,0.149c-0.23,1.31-0.465,1.253-0.703,0.135       c-0.238,1.405-0.48,0.847-0.727,0.122c-0.246-0.786-0.495,1.232-0.748,0.107c-0.254-0.086-0.51,0.32-0.77,0.091       c-0.26-0.577-0.523-1.223-0.789,0.077c-0.267,0.347-0.535,0.819-0.807,0.061c-0.272,1.496-0.547,0.833-0.823,0.043       c-0.277,0.248-0.557-0.813-0.839,0.027c-0.281-0.233-0.565,0.659-0.852,0.009c-0.285-0.452-0.569-0.884-0.852-0.009       c-0.281,0.959-0.561-0.398-0.838-0.027c-0.276-1.401-0.552,0.458-0.823-0.043c-0.271,0.136-0.54-0.811-0.807-0.061       c-0.266,0.258-0.529,0.53-0.789-0.077c-0.26,2.159-0.516-0.554-0.77-0.091c-0.253-0.911-0.503,0.135-0.748-0.107       c-0.246,0.402-0.488-0.995-0.727-0.122c-0.238-0.182-0.473,0.696-0.703-0.135c-0.229,1.069-0.456-0.902-0.678-0.149       c-0.221-0.006-0.438,0.068-0.65-0.162c-0.213-1.682-0.42-0.287-0.623-0.174c-0.202-0.182-0.4,0.955-0.593-0.187       c-0.192-0.136-0.38-0.877-0.563-0.198c-0.182,0.248-0.358-2.449-0.529-0.208c-0.171,0.401-0.337-1.723-0.496-0.219       c-0.159,1.386-0.313-0.171-0.46-0.229c-0.146-0.082-0.286-0.162-0.423-0.239c-1.214-0.729-1.909-1.577-1.909-2.481       c0-1.006,0.858-1.941,2.332-2.72c0.147-0.078,0.301-1.257,0.46-0.229c0.159,0.005,0.325-0.899,0.496-0.219       c0.171-1.562,0.348-0.287,0.529-0.208c0.183-0.078,0.37,0.426,0.563-0.198c0.192-0.906,0.391,0.45,0.593-0.187       c0.203,0.961,0.41,0.709,0.623-0.174c0.212,0.936,0.43-0.198,0.65-0.162c0.222,1.441,0.448,0.429,0.678-0.149       c0.23-0.528,0.465,0.216,0.703-0.136c0.238,0.278,0.48-0.366,0.727-0.122c0.245-0.676,0.495-0.929,0.748-0.106       c0.254-0.465,0.51-0.092,0.77-0.092c0.26-0.572,0.523,0.072,0.789-0.076c0.267-0.299,0.535,1.532,0.807-0.061       c0.271-0.203,0.547,0.25,0.823-0.043c0.277,0.198,0.557,0.412,0.838-0.028c0.282,1.57,0.566,0.603,0.852-0.008       c0.286-0.451,0.57-0.222,0.852,0.008c0.282-0.156,0.562-0.075,0.839,0.028c0.276-0.464,0.551,0.674,0.823,0.043       c0.271-0.667,0.54,0.716,0.807,0.061c0.266-0.455,0.529-0.704,0.789,0.076c0.26-0.001,0.516,1.43,0.77,0.092       c0.253-0.305,0.502-2.083,0.748,0.106c0.246-0.546,0.488,1.054,0.727,0.122c0.238,1.601,0.473,0.082,0.703,0.136       c0.229,0.309,0.456,0.848,0.678,0.149c0.221-0.764,0.438,0.417,0.65,0.162c0.213-0.917,0.42,1.2,0.623,0.174       c0.202,0.208,0.4-0.139,0.593,0.187c0.192-2.158,0.38,0.011,0.563,0.198c0.182,0.311,0.358-1.429,0.529,0.208       c0.171-1.632,0.336-0.221,0.496,0.219c0.159,0.475,0.313-0.689,0.46,0.229c0.147-1.148,0.288,0.635,0.423,0.239       c0.136,0.761,0.264,0.043,0.386,0.247c0.121-0.258,0.236-0.166,0.345,0.256c0.108,0.086,0.21,0.174,0.304,0.263       C283.602,41.433,283.91,42.01,283.91,42.614z"></path></g></g></g><g><g><g><path d="M270.006,56.705c-0.604,0-1.182-0.31-1.716-0.875c-0.089-0.095-0.177-0.196-0.263-0.305       c-0.158-0.108-0.33-0.224-0.256-0.345c0.795-0.122-1.477-0.25-0.247-0.386c0.354-0.135,0.026-0.276-0.239-0.424       c-0.277-0.147,0.505-0.301-0.229-0.461c-1.55-0.159,1.72-0.325-0.219-0.496c-0.421-0.171-0.306-0.348-0.208-0.53       c1.183-0.182,0.009-0.37-0.198-0.563c1.429-0.193,0.807-0.391-0.186-0.594c1.957-0.203,1.656-0.411-0.176-0.624       c-0.063-0.213,0.699-0.43-0.161-0.652c-0.129-0.222-0.494-0.448-0.149-0.678c-1.309-0.23-1.252-0.465-0.135-0.704       c-1.404-0.239-0.848-0.481-0.121-0.728c0.785-0.246-1.232-0.496-0.107-0.75c0.086-0.253-0.32-0.51-0.092-0.771       c0.577-0.26,1.224-0.523-0.076-0.79c-0.347-0.267-0.819-0.536-0.061-0.808c-1.496-0.272-0.832-0.547-0.043-0.824       c-0.248-0.277,0.813-0.557-0.027-0.839c0.232-0.282-0.658-0.566-0.009-0.853c0.452-0.286,0.884-0.57,0.009-0.853       c-0.959-0.282,0.398-0.562,0.027-0.839c1.4-0.277-0.459-0.552,0.043-0.824c-0.136-0.272,0.811-0.542,0.061-0.808       c-0.258-0.266-0.529-0.529,0.076-0.79c-2.158-0.26,0.555-0.517,0.092-0.771c0.911-0.253-0.135-0.503,0.107-0.75       c-0.402-0.246,0.994-0.489,0.121-0.727c0.182-0.239-0.695-0.473,0.135-0.704c-1.068-0.23,0.902-0.457,0.149-0.678       c0.006-0.222-0.067-0.439,0.161-0.652c1.683-0.212,0.287-0.42,0.175-0.624c0.182-0.203-0.954-0.401,0.187-0.594       c0.136-0.193,0.877-0.381,0.198-0.563c-0.248-0.182,2.448-0.359,0.208-0.53c-0.401-0.171,1.723-0.337,0.219-0.496       c-1.385-0.16,0.172-0.313,0.229-0.461c0.083-0.146,0.162-0.287,0.239-0.424c0.729-1.215,1.577-1.911,2.481-1.911       c1.006,0,1.941,0.86,2.721,2.335c0.078,0.147,1.257,0.301,0.229,0.461c-0.006,0.159,0.898,0.325,0.219,0.496       c1.562,0.171,0.287,0.348,0.208,0.53c0.077,0.182-0.427,0.37,0.198,0.563c0.906,0.193-0.45,0.391,0.186,0.594       c-0.961,0.203-0.709,0.411,0.175,0.624c-0.937,0.212,0.198,0.43,0.161,0.652c-1.44,0.222-0.429,0.448,0.149,0.678       c0.528,0.23-0.216,0.465,0.136,0.704c-0.277,0.238,0.366,0.481,0.121,0.727c0.676,0.247,0.93,0.497,0.107,0.75       c0.465,0.253,0.092,0.51,0.092,0.771c0.572,0.26-0.072,0.523,0.076,0.79c0.299,0.267-1.532,0.536,0.061,0.808       c0.202,0.272-0.25,0.547,0.043,0.824c-0.198,0.277-0.412,0.557,0.027,0.839c-1.57,0.282-0.602,0.566,0.009,0.853       c0.451,0.287,0.222,0.571-0.009,0.853c0.156,0.282,0.076,0.562-0.027,0.839c0.464,0.277-0.674,0.552-0.043,0.824       c0.666,0.272-0.717,0.542-0.061,0.808c0.455,0.266,0.703,0.529-0.076,0.79c0,0.26-1.431,0.517-0.092,0.771       c0.305,0.253,2.082,0.503-0.107,0.75c0.547,0.247-1.054,0.489-0.121,0.728c-1.602,0.239-0.082,0.473-0.136,0.704       c-0.31,0.23-0.849,0.457-0.149,0.678c0.764,0.222-0.416,0.439-0.161,0.652c0.917,0.212-1.2,0.42-0.175,0.624       c-0.207,0.203,0.14,0.401-0.186,0.594c2.157,0.193-0.012,0.381-0.198,0.563c-0.312,0.182,1.429,0.359-0.208,0.53       c1.632,0.171,0.221,0.336-0.219,0.496c-0.475,0.16,0.689,0.313-0.229,0.461c1.147,0.147-0.636,0.289-0.239,0.424       c-0.761,0.135-0.043,0.264-0.247,0.386c0.258,0.122,0.166,0.237-0.256,0.345c-0.086,0.108-0.174,0.21-0.264,0.305       C271.188,56.395,270.609,56.705,270.006,56.705z"></path></g></g></g><g><g><g><path d="M394.611,347.97c0,0.603-0.309,1.182-0.874,1.716c-0.095,0.089-0.196,0.177-0.305,0.264       c-0.107,0.157-0.223,0.329-0.345,0.255c-0.122-0.794-0.25,1.476-0.385,0.247c-0.135-0.355-0.276-0.026-0.424,0.238       c-0.146,0.277-0.301-0.504-0.46,0.229c-0.159,1.551-0.324-1.719-0.495,0.22c-0.171,0.421-0.348,0.306-0.53,0.208       c-0.182-1.183-0.369-0.009-0.562,0.198c-0.192-1.429-0.391-0.806-0.593,0.186c-0.203-1.956-0.411-1.655-0.623,0.175       c-0.212,0.063-0.43-0.697-0.65,0.162c-0.222,0.129-0.447,0.494-0.678,0.148c-0.23,1.311-0.465,1.254-0.702,0.136       c-0.238,1.405-0.48,0.847-0.727,0.122c-0.246-0.786-0.496,1.232-0.749,0.106c-0.253-0.087-0.51,0.32-0.77,0.091       c-0.26-0.576-0.522-1.223-0.788,0.077c-0.267,0.347-0.535,0.819-0.807,0.061c-0.271,1.495-0.546,0.833-0.823,0.044       c-0.277,0.247-0.557-0.813-0.838,0.026c-0.282-0.233-0.565,0.659-0.852,0.009c-0.286-0.452-0.57-0.885-0.852-0.009       c-0.281,0.959-0.561-0.398-0.838-0.026c-0.277-1.402-0.552,0.457-0.823-0.044c-0.271,0.136-0.54-0.812-0.807-0.061       c-0.266,0.258-0.528,0.53-0.788-0.077c-0.26,2.159-0.517-0.554-0.77-0.091c-0.253-0.911-0.503,0.135-0.749-0.106       c-0.246,0.402-0.488-0.996-0.727-0.122c-0.238-0.182-0.472,0.696-0.702-0.136c-0.23,1.069-0.456-0.902-0.678-0.148       c-0.222-0.006-0.438,0.068-0.65-0.162c-0.212-1.682-0.42-0.287-0.623-0.174c-0.202-0.182-0.4,0.955-0.593-0.187       c-0.192-0.136-0.38-0.878-0.563-0.198c-0.182,0.248-0.358-2.449-0.529-0.208c-0.171,0.401-0.336-1.724-0.495-0.22       c-0.159,1.387-0.313-0.171-0.46-0.229c-0.146-0.082-0.287-0.161-0.424-0.238c-1.213-0.729-1.908-1.576-1.908-2.481       c0-1.007,0.858-1.94,2.332-2.72c0.146-0.078,0.301-1.258,0.46-0.229c0.159,0.005,0.324-0.9,0.495-0.22       c0.171-1.562,0.348-0.287,0.529-0.208c0.183-0.078,0.37,0.426,0.563-0.197c0.192-0.906,0.391,0.449,0.593-0.188       c0.203,0.961,0.41,0.709,0.623-0.174c0.212,0.936,0.429-0.198,0.65-0.162c0.222,1.441,0.447,0.43,0.678-0.148       c0.23-0.528,0.464,0.217,0.702-0.136c0.238,0.278,0.48-0.366,0.727-0.122c0.246-0.676,0.496-0.928,0.749-0.105       c0.253-0.465,0.51-0.092,0.77-0.092c0.259-0.572,0.522,0.071,0.788-0.076c0.267-0.3,0.535,1.531,0.807-0.061       c0.271-0.203,0.546,0.25,0.823-0.044c0.277,0.198,0.557,0.412,0.838-0.028c0.281,1.57,0.565,0.604,0.852-0.008       c0.286-0.451,0.569-0.223,0.852,0.008c0.281-0.156,0.561-0.074,0.838,0.028c0.277-0.464,0.552,0.675,0.823,0.044       c0.271-0.667,0.54,0.715,0.807,0.061c0.266-0.455,0.528-0.705,0.788,0.076c0.26-0.002,0.517,1.43,0.77,0.092       c0.253-0.305,0.503-2.084,0.749,0.105c0.246-0.546,0.488,1.055,0.727,0.122c0.237,1.601,0.472,0.081,0.702,0.136       c0.23,0.309,0.456,0.848,0.678,0.148c0.221-0.764,0.438,0.418,0.65,0.162c0.212-0.918,0.42,1.2,0.623,0.174       c0.202,0.209,0.4-0.139,0.593,0.188c0.192-2.158,0.38,0.011,0.562,0.197c0.183,0.311,0.359-1.429,0.53,0.208       c0.171-1.632,0.336-0.221,0.495,0.22c0.159,0.475,0.313-0.689,0.46,0.229c0.147-1.148,0.289,0.635,0.424,0.238       c0.135,0.762,0.263,0.043,0.385,0.247c0.122-0.259,0.237-0.165,0.345,0.256c0.108,0.087,0.21,0.174,0.305,0.263       C394.303,346.789,394.611,347.365,394.611,347.97z"></path></g></g></g><g><g><g><path d="M380.707,362.029c-0.604,0-1.182-0.31-1.716-0.875c-0.089-0.094-0.177-0.195-0.263-0.304       c-0.158-0.108-0.33-0.224-0.256-0.345c0.795-0.122-1.477-0.251-0.247-0.386c0.354-0.135,0.026-0.275-0.239-0.423       c-0.277-0.147,0.505-0.301-0.229-0.461c-1.55-0.159,1.72-0.324-0.219-0.495c-0.421-0.171-0.306-0.348-0.208-0.53       c1.183-0.182,0.009-0.369-0.198-0.562c1.429-0.193,0.807-0.391-0.186-0.594c1.957-0.202,1.656-0.41-0.176-0.623       c-0.063-0.212,0.699-0.429-0.161-0.65c-0.129-0.222-0.494-0.447-0.149-0.678c-1.309-0.23-1.252-0.465-0.135-0.703       c-1.404-0.238-0.848-0.48-0.121-0.727c0.785-0.245-1.232-0.495-0.107-0.748c0.086-0.254-0.32-0.51-0.092-0.77       c0.577-0.261,1.224-0.523-0.076-0.789c-0.347-0.267-0.819-0.535-0.061-0.808c-1.496-0.271-0.832-0.546-0.043-0.823       c-0.248-0.276,0.813-0.556-0.027-0.838c0.232-0.281-0.658-0.565-0.009-0.852c0.452-0.286,0.884-0.57,0.009-0.852       c-0.959-0.282,0.398-0.562,0.027-0.839c1.4-0.276-0.459-0.551,0.043-0.822c-0.136-0.272,0.811-0.541,0.061-0.808       c-0.258-0.266-0.529-0.528,0.076-0.789c-2.158-0.26,0.555-0.516,0.092-0.77c0.911-0.253-0.135-0.503,0.107-0.748       c-0.402-0.246,0.994-0.488,0.121-0.727c0.182-0.238-0.695-0.473,0.135-0.703c-1.068-0.23,0.902-0.456,0.149-0.678       c0.006-0.222-0.067-0.438,0.161-0.651c1.683-0.212,0.287-0.42,0.175-0.622c0.182-0.203-0.954-0.4,0.187-0.594       c0.136-0.192,0.877-0.38,0.198-0.562c-0.248-0.183,2.448-0.359,0.208-0.53c-0.401-0.171,1.723-0.336,0.219-0.495       c-1.385-0.16,0.172-0.313,0.229-0.461c0.083-0.146,0.162-0.286,0.239-0.423c0.729-1.214,1.577-1.909,2.481-1.909       c1.006,0,1.941,0.858,2.721,2.332c0.078,0.147,1.257,0.301,0.229,0.461c-0.006,0.159,0.898,0.324,0.219,0.495       c1.562,0.171,0.287,0.348,0.208,0.53c0.077,0.182-0.427,0.369,0.198,0.562c0.906,0.193-0.45,0.391,0.186,0.594       c-0.961,0.202-0.709,0.41,0.175,0.622c-0.937,0.213,0.198,0.43,0.161,0.651c-1.44,0.222-0.429,0.447,0.149,0.678       c0.528,0.23-0.216,0.465,0.136,0.703c-0.277,0.238,0.366,0.48,0.121,0.727c0.676,0.245,0.93,0.495,0.107,0.748       c0.465,0.254,0.092,0.51,0.092,0.77c0.572,0.26-0.072,0.523,0.076,0.789c0.299,0.267-1.532,0.535,0.061,0.808       c0.202,0.271-0.25,0.546,0.043,0.822c-0.198,0.277-0.412,0.557,0.027,0.839c-1.57,0.281-0.602,0.565,0.009,0.852       c0.451,0.286,0.222,0.57-0.009,0.852c0.156,0.282,0.076,0.562-0.027,0.838c0.464,0.277-0.674,0.552-0.043,0.823       c0.666,0.272-0.717,0.541-0.061,0.808c0.455,0.266,0.703,0.528-0.076,0.789c0,0.26-1.431,0.516-0.092,0.77       c0.305,0.253,2.082,0.503-0.107,0.748c0.547,0.246-1.054,0.488-0.121,0.727c-1.602,0.238-0.082,0.473-0.136,0.703       c-0.31,0.23-0.849,0.456-0.149,0.678c0.764,0.222-0.416,0.438-0.161,0.65c0.917,0.213-1.2,0.421-0.175,0.623       c-0.207,0.203,0.14,0.4-0.186,0.594c2.157,0.192-0.012,0.38-0.198,0.562c-0.312,0.183,1.429,0.359-0.208,0.53       c1.632,0.171,0.221,0.336-0.219,0.495c-0.475,0.16,0.689,0.313-0.229,0.461c1.147,0.147-0.636,0.288-0.239,0.423       c-0.761,0.135-0.043,0.264-0.247,0.386c0.258,0.121,0.166,0.236-0.256,0.345c-0.086,0.108-0.174,0.21-0.264,0.304       C381.889,361.72,381.311,362.029,380.707,362.029z"></path></g></g></g></g></g></g><g id="SvgjsG1017" featureKey="nameFeature-0" transform="matrix(1.9708346996068369,0,0,1.9708346996068369,5.029165065451359,173.44064736473788)" fill="#d2ecf9"><path d="M12.662 12.032 l0.93836 0 l-11.662 27.967 l-0.93836 0 z M13.997 12.032 l0.93836 0 l-11.662 27.967 l-0.93469 0 z M15.337 12.032 l0.93469 0 l-11.662 27.967 l-0.93469 0 z M16.672 12.032 l0.93836 0 l-11.665 27.967 l-0.93469 0 z M29.718 39.9987891 l-11.143 -27.08 l-0.23918 0.57772 l10.904 26.502 l-0.93469 0 l-10.44 -25.376 l-0.23918 0.57772 l10.204 24.802 l-0.93469 0 l-9.7404 -23.672 l-0.23918 0.57408 l9.5012 23.098 l-0.93469 0 l-9.0376 -21.969 l-0.23918 0.57408 l8.8024 21.391 l-0.93469 0 l-2.0975 -5.1076 l-12.556 0 l-2.1306 5.1076 l-0.93836 0 l11.662 -27.967 l1.1334 0 l11.507 27.967 l-0.93469 0 z M21.614 34.0264 l-0.18402 -0.44896 l-11.466 0 l-0.18766 0.44896 l11.838 0 z M21.074 32.7128 l-0.1877 -0.44896 l-10.377 0 l-0.18766 0.44896 l10.753 0 z M20.532 31.3988 l-0.1877 -0.44896 l-9.288 0 l-0.18766 0.44896 l9.6633 0 z M19.992 30.0852 l-0.18398 -0.44896 l-8.2024 0 l-0.18766 0.44896 l8.5741 0 z M19.451 28.772 l-3.7167 -9.034 l-3.7682 9.034 l7.4848 0 z M36.299 22.667 c4.7508 0.036797 8.6072 3.908 8.6072 8.666 c0 4.7764 -3.8859 8.666 -8.666 8.666 c-3.5658 0 -6.7196 -2.138 -8.044 -5.4536 l0.6918 -0.32016 l0.091992 -0.036797 c1.1812 3.0028 4.0332 4.9456 7.2568 4.9456 c4.3016 0 7.8012 -3.4995 7.8012 -7.8012 s-3.4995 -7.8012 -7.8012 -7.8012 l0 -0.011055 c-1.8546 -0.033125 -3.356 -1.5492 -3.356 -3.4149 c0 -1.8841 1.5345 -3.4186 3.4186 -3.4186 c1.3946 0 2.5943 0.82796 3.1242 2.0276 l-0.78384 0.3643 c-0.39375 -0.90156 -1.2916 -1.5272 -2.3404 -1.5272 c-1.4057 0 -2.5538 1.1481 -2.5538 2.5575 s1.1444 2.5575 2.5538 2.5575 z M32.431799999999996 20.109 c0 2.1343 1.7368 3.8676 3.8674 3.8712 c4.0296 0.033125 7.2936 3.3192 7.2936 7.3524 c0 4.0552 -3.3008 7.356 -7.356 7.356 c-3.0322 0 -5.7552 -1.8804 -6.852 -4.6956 l0.78384 -0.3643 c0.95676 2.5134 3.3744 4.1952 6.068 4.1952 c3.5805 0 6.4912 -2.9108 6.4912 -6.4912 s-2.9108 -6.4912 -6.4912 -6.4912 l0 -0.0036719 c-2.5796 -0.033125 -4.6696 -2.1417 -4.6696 -4.7288 c0 -2.609 2.1233 -4.7324 4.7324 -4.7324 c1.8804 0 3.5547 1.126 4.3092 2.7893 l-0.78384 0.3643 c-0.61084 -1.3616 -1.9871 -2.2889 -3.5253 -2.2889 c-2.1343 0 -3.8676 1.7332 -3.8676 3.8676 z M41.797 17.618 l-0.78384 0.36797 c-0.82796 -1.8252 -2.6753 -3.0506 -4.714 -3.0506 c-2.8556 0 -5.1776 2.322 -5.1776 5.1776 s2.322 5.1776 5.1776 5.1776 c3.3008 0.033125 5.9796 2.7268 5.9796 6.0388 c0 3.3303 -2.7084 6.0424 -6.0424 6.0424 c-2.517 0 -4.784 -1.6008 -5.656 -3.9374 l0.78752 -0.3643 c0.7286 2.035 2.69 3.437 4.8684 3.437 c2.8556 0 5.1776 -2.322 5.1776 -5.1776 s-2.322 -5.1776 -5.1776 -5.1776 l0 -0.0036719 c-3.3008 -0.033125 -5.9796 -2.7268 -5.9796 -6.0388 c0 -3.3303 2.7084 -6.0424 6.0424 -6.0424 c2.3772 0 4.53 1.4278 5.4976 3.551 z M42.992999999999995 17.066 l-0.78752 0.36062 c-1.0451 -2.2999 -3.356 -3.8087 -5.91 -3.8087 c-3.5805 0 -6.4912 2.9108 -6.4912 6.4912 s2.9108 6.4912 6.4912 6.4912 l0 0.0036719 c2.5796 0.033125 4.6696 2.1417 4.6696 4.7288 c0 2.609 -2.1233 4.7324 -4.7324 4.7324 c-2.0202 0 -3.8086 -1.3064 -4.4636 -3.1794 l0.78752 -0.3643 c0.51148 1.575 1.9982 2.6789 3.6798 2.6789 c2.1343 0 3.8676 -1.7332 3.8676 -3.8676 s-1.7332 -3.8676 -3.8676 -3.8676 c-4.0296 -0.033125 -7.2936 -3.3192 -7.2936 -7.3524 c0 -4.0552 3.3008 -7.356 7.356 -7.356 c2.8924 0 5.5052 1.7075 6.6936 4.3092 z M36.236599999999996 28.775 c-4.7472 -0.033125 -8.6036 -3.908 -8.6036 -8.6624 c0 -4.78 3.8859 -8.666 8.666 -8.666 c3.4296 0 6.4692 1.9761 7.8788 5.0708 l-0.78384 0.3643 c-1.2696 -2.7893 -4.0076 -4.5704 -7.0948 -4.5704 c-4.3016 0 -7.8012 3.4995 -7.8012 7.8012 s3.4995 7.8012 7.8012 7.8012 l0 0.0036719 c1.8546 0.033125 3.356 1.5492 3.356 3.4149 c0 1.8841 -1.5308 3.4186 -3.4186 3.4186 c-1.5419 0 -2.8409 -1.012 -3.2677 -2.4213 l0.79116 -0.36797 c0.27969 1.115 1.2806 1.9246 2.4766 1.9246 c1.4094 0 2.5575 -1.1444 2.5575 -2.5538 s-1.1481 -2.5575 -2.5575 -2.5575 z M62.216 13.04 l-17.351 0 l0 -0.86476 l17.351 0 l0 0.86476 z M62.216 14.376000000000001 l-17.351 0 l0 -0.86476 l17.351 0 l0 0.86476 z M62.216 15.707999999999998 l-17.351 0 l0 -0.86476 l17.351 0 l0 0.86476 z M62.216 17.044 l-17.351 0 l0 -0.86476 l17.351 0 l0 0.86476 z M44.866 18.376 l0 -0.86476 l17.354 0 l0 0.86476 l-5.5787 0 l0 21.623 l-0.86109 0 l0 -21.623 l-0.47102 0 l0 21.623 l-0.86476 0 l0 -21.623 l-0.46734 0 l0 21.623 l-0.86476 0 l0 -21.623 l-0.47102 0 l0 21.623 l-0.86476 0 l0 -21.623 l-0.46734 0 l0 21.623 l-0.86476 0 l0 -21.623 l-5.5787 0 z M68.6738 25.658 l0.7838 -0.36062 l6.8152 14.701 l-0.95308 0 z M69.8918 25.118000000000002 l0.78384 -0.36062 l7.0652 15.242 l-0.95308 0 z M71.0586 24.484 l0.78752 -0.3643 l7.3672 15.878 l-0.95308 0 z M63.043800000000005 39.9987891 l-0.86476 0 l0 -27.941 l0.86476 0 l0 27.941 z M64.3759 39.9987891 l-0.86476 0 l0 -27.941 l0.86476 0 l0 27.941 z M65.7118 39.9987891 l-0.86476 0 l0 -27.941 l0.86476 0 l0 27.941 z M67.0438 39.9987891 l-0.86476 0 l0 -27.941 l0.86476 0 l0 27.941 z M75.515 28.856 l5.1704 11.146 l-0.95308 0 l-7.4996 -16.177 l0.4416 -0.32383 c0.79116 -0.55568 1.2732 -1.4683 1.2732 -2.4361 c0 -1.6375 -1.3321 -2.966 -2.966 -2.966 l-2.6017 0 l0 8.0368 l6.4252 13.862 l-0.95308 0 l-5.472 -11.805 l0 11.805 l-0.86476 0 l0 -27.941 l3.4627 0 c4.9716 0 9.0156 4.044 9.0156 9.0156 c0 3.2125 -1.7111 6.1636 -4.4784 7.7828 z M73.311 24.094 l0.18398 0.4048 c1.0856 -0.79852 1.7442 -2.0791 1.7442 -3.4333 c0 -2.3514 -1.9135 -4.2612 -4.2612 -4.2612 l-2.6017 0 l0 0.43055 l2.6017 0 c2.1122 0 3.8307 1.7185 3.8307 3.8307 c0 1.1886 -0.55932 2.3036 -1.4977 3.0285 z M73.866 25.298000000000002 l0.18027 0.39734 c1.5456 -1.0267 2.4876 -2.7673 2.4876 -4.6292 c0 -3.0653 -2.4912 -5.5564 -5.5564 -5.5564 l-2.6017 0 l0 0.43055 l2.6017 0 c2.8261 0 5.126 2.2999 5.126 5.126 c0 1.6854 -0.85004 3.2824 -2.2374 4.232 z M74.418 26.483 l0.18402 0.39383 c2.0055 -1.2512 3.2346 -3.4444 3.2346 -5.814 c0 -3.7756 -3.0764 -6.852 -6.8556 -6.852 l-2.6017 0 l0 0.43055 l2.6017 0 c3.54 0 6.4212 2.8813 6.4212 6.4212 c0 2.2006 -1.1371 4.2428 -2.9844 5.4204 z M74.967 27.668 l0.1877 0.40112 c2.4582 -1.472 3.9779 -4.1216 3.9779 -6.9956 c0 -4.4932 -3.6578 -8.1508 -8.1508 -8.1508 l-2.6017 0 l0 0.42688 l2.6017 0 c4.254 0 7.7168 3.4627 7.7168 7.7168 c0 2.7047 -1.4241 5.2032 -3.7314 6.6016 z M93.31400000000001 12.032 l0.93836 0 l-11.662 27.967 l-0.93836 0 z M94.649 12.032 l0.93836 0 l-11.662 27.967 l-0.93469 0 z M95.989 12.032 l0.93469 0 l-11.662 27.967 l-0.93469 0 z M97.324 12.032 l0.93836 0 l-11.665 27.967 l-0.93469 0 z M110.37 39.9987891 l-11.143 -27.08 l-0.23918 0.57772 l10.904 26.502 l-0.93469 0 l-10.44 -25.376 l-0.23918 0.57772 l10.204 24.802 l-0.93469 0 l-9.7404 -23.672 l-0.23918 0.57408 l9.5012 23.098 l-0.93469 0 l-9.0376 -21.969 l-0.23918 0.57408 l8.8024 21.391 l-0.93469 0 l-2.0975 -5.1076 l-12.556 0 l-2.1306 5.1076 l-0.93836 0 l11.662 -27.967 l1.1334 0 l11.507 27.967 l-0.93469 0 z M102.266 34.0264 l-0.18402 -0.44896 l-11.466 0 l-0.18766 0.44896 l11.838 0 z M101.726 32.7128 l-0.1877 -0.44896 l-10.377 0 l-0.18766 0.44896 l10.753 0 z M101.184 31.3988 l-0.1877 -0.44896 l-9.288 0 l-0.18766 0.44896 l9.6633 0 z M100.644 30.0852 l-0.18398 -0.44896 l-8.2024 0 l-0.18766 0.44896 l8.5741 0 z M100.10300000000001 28.772 l-3.7167 -9.034 l-3.7682 9.034 l7.4848 0 z"></path></g><g id="SvgjsG1018" featureKey="nameFeature-1" transform="matrix(2.011674543394095,0,0,2.011674543394095,-2.0115342543726165,237.7967605513674)" fill="#d2ecf9"><path d="M9.8392 12.043 l0.87949 0 l-4.9972 27.956 l-0.87949 0 z M8.562 12.043 l0.87582 0 l-5.0008 27.956 l-0.87582 0 z M7.278 12.043 l0.87949 0 l-4.9972 27.956 l-0.87949 0 z M6.0008 12.043 l0.87582 0 l-4.9972 27.956 l-0.87949 0 z M29.81 12.043 l-0.000078124 0.007422 l0.93102 0 l4.9972 27.956 l-0.87949 0 l-3.1132 -17.402 l-7.4076 17.402 l-0.93836 0 l8.07 -18.955 l-0.12879 -0.71392 l-8.3752 19.669 l-0.93836 0 l9.034 -21.222 l-0.12879 -0.71392 l-9.3396 21.936 l-0.93836 0 l9.998 -23.488 l-0.12512 -0.7102 l-10.304 24.199 l-0.93836 0 l10.962 -25.755 l-0.12879 -0.71392 l-11.268 26.466 l-1.667 0 l-7.1316 -17.045 l-3.0469 17.045 l-0.87949 0 l4.9972 -27.956 l0.87949 0 l-0.0036719 0.018398 l8.7508 21.262 z M18.012 39.7523 l0.18766 -0.44524 l-7.7424 -18.642 l-0.12879 0.72124 z M18.674 38.1958 l0.21711 -0.5078 l-8.026 -19.319 l-0.12879 0.72124 z M19.366 36.5729 l0.21711 -0.5078 l-8.3056 -19.993 l-0.12879 0.72124 z M20.058 34.95 l0.2134 -0.50416 l-8.5592 -20.798 l-0.15086 0.85004 z M31.127 12.043 l0.87949 0 l4.9972 27.956 l-0.87582 0 z M32.408 12.043 l0.87949 0 l4.9972 27.956 l-0.87949 0 z M33.688 12.043 l0.87582 0 l5.0008 27.956 l-0.87949 0 z M35.844 12.043 l5.0008 27.956 l-0.87949 0 l-4.9972 -27.956 l0.87582 0 z M42.69780000000001 40.0024609 l-0.86476 0 l0 -27.963 l0.86476 0 l0 27.963 z M44.029900000000005 40.0024609 l-0.86476 0 l0 -27.963 l0.86476 0 l0 27.963 z M45.36580000000001 40.0024609 l-0.86476 0 l0 -27.963 l0.86476 0 l0 27.963 z M46.69780000000001 40.0024609 l-0.86476 0 l0 -27.963 l0.86476 0 l0 27.963 z M58.175000000000004 12.899999999999999 l-10.142 0.000039062 l0 0.47102 l10.142 0 l0 0.86476 l-10.142 0 l0 0.46734 l10.142 0 l0 0.86476 l-10.142 0 l0 0.47102 l10.142 0 l0 0.86476 l-10.142 0 l0 0.46734 l10.142 0 l0 0.86476 l-10.142 0 l0 5.3726 l7.3781 0 l0 0.86476 l-7.3781 0 l0 0.47102 l7.3781 0 l0 0.86109 l-7.3781 0 l0 0.47102 l7.3781 0 l0 0.86476 l-7.3781 0 l0 0.46734 l7.3781 0 l0 0.86476 l-7.3781 0 l0 0.47102 l7.3781 0 l0 0.86476 l-7.3781 0 l0 3.9927 l10.142 0 l0 0.86476 l-10.142 0 l0 0.46734 l10.142 0 l0 0.86476 l-10.142 0 l0 0.47102 l10.142 0 l0 0.86109 l-10.142 0 l0 0.47102 l10.142 0 l0 0.86476 l-10.142 0 l0 0.46734 l10.142 0 l0 0.86476 l-11.006 0 l0 -27.96 l11.006 0 l0 0.86109 z M74.189 16.172 c2.6422 2.6385 4.0956 6.1492 4.092 9.884 c0 7.3524 -5.7736 13.45 -13.023 13.943 l-1.2254 0 l0 -27.915 l0.86476 0 l0 0.011055 c3.5106 0.14352 6.7968 1.5824 9.2916 4.0772 z M64.8976 17.986 l0 16.136 c4.1728 -0.30543 7.496 -3.8344 7.496 -8.0664 c0 -4.2356 -3.3229 -7.7644 -7.496 -8.07 z M64.8976 34.9868 l0 0.39379 c4.8684 -0.30543 8.7544 -4.4012 8.7544 -9.3248 c0 -4.9272 -3.8896 -9.0192 -8.7544 -9.3284 l0 0.39375 c4.6476 0.30543 8.3608 4.228 8.3608 8.9348 c0 4.7028 -3.713 8.6256 -8.3608 8.9312 z M64.8976 36.245400000000004 l0 0.39375 c5.5564 -0.3091 10.009 -4.9676 10.009 -10.583 s-4.4524 -10.27 -10.009 -10.583 l0 0.39008 c5.3432 0.3091 9.6192 4.7948 9.6192 10.193 s-4.2796 9.8804 -9.6192 10.19 z M64.8976 37.5039 l0 0.39012 c6.252 -0.3091 11.268 -5.5272 11.268 -11.838 c0 -6.3072 -5.0156 -11.529 -11.268 -11.842 l0 0.39375 c6.0348 0.31277 10.874 5.358 10.874 11.448 s-4.8392 11.139 -10.874 11.448 z M64.8976 39.15248 c6.944 -0.31277 12.522 -6.094 12.522 -13.097 c0 -3.5032 -1.3652 -6.7968 -3.8418 -9.2732 c-2.333 -2.3367 -5.402 -3.6836 -8.6808 -3.8271 l0 0.39375 c6.7232 0.31277 12.129 5.9244 12.129 12.706 s-5.402 12.39 -12.129 12.703 l0 0.39375 z M63.676 39.9988672 l-0.86476 0 l0 -27.915 l0.86476 0 l0 27.915 z M62.454 39.9988672 l-0.86476 0 l0 -27.915 l0.86476 0 l0 27.915 z M61.2325 39.9988672 l-0.86476 0 l0 -27.915 l0.86476 0 l0 27.915 z M60.0108 39.9988672 l-0.86476 0 l0 -27.915 l0.86476 0 l0 27.915 z M80.1238 39.9987891 l-0.86476 0 l0 -27.956 l0.86476 0 l0 27.956 z M81.4596 39.9987891 l-0.86476 0 l0 -27.956 l0.86476 0 l0 27.956 z M82.7918 39.9987891 l-0.86476 0 l0 -27.956 l0.86476 0 l0 27.956 z M84.1274 39.9987891 l-0.86476 0 l0 -27.956 l0.86476 0 l0 27.956 z M85.4594 39.9987891 l-0.86476 0 l0 -27.956 l0.86476 0 l0 27.956 z M98.114 12.032 l0.93836 0 l-11.662 27.967 l-0.93836 0 z M99.449 12.032 l0.93836 0 l-11.662 27.967 l-0.93469 0 z M100.789 12.032 l0.93469 0 l-11.662 27.967 l-0.93469 0 z M102.124 12.032 l0.93836 0 l-11.665 27.967 l-0.93469 0 z M115.17 39.9987891 l-11.143 -27.08 l-0.23918 0.57772 l10.904 26.502 l-0.93469 0 l-10.44 -25.376 l-0.23918 0.57772 l10.204 24.802 l-0.93469 0 l-9.7404 -23.672 l-0.23918 0.57408 l9.5012 23.098 l-0.93469 0 l-9.0376 -21.969 l-0.23918 0.57408 l8.8024 21.391 l-0.93469 0 l-2.0975 -5.1076 l-12.556 0 l-2.1306 5.1076 l-0.93836 0 l11.662 -27.967 l1.1334 0 l11.507 27.967 l-0.93469 0 z M107.066 34.0264 l-0.18402 -0.44896 l-11.466 0 l-0.18766 0.44896 l11.838 0 z M106.526 32.7128 l-0.1877 -0.44896 l-10.377 0 l-0.18766 0.44896 l10.753 0 z M105.984 31.3988 l-0.1877 -0.44896 l-9.288 0 l-0.18766 0.44896 l9.6633 0 z M105.444 30.0852 l-0.18398 -0.44896 l-8.2024 0 l-0.18766 0.44896 l8.5741 0 z M104.90299999999999 28.772 l-3.7167 -9.034 l-3.7682 9.034 l7.4848 0 z"></path></g><g id="SvgjsG1019" featureKey="sloganFeature-0" transform="matrix(0.503430782220292,0,0,0.503430782220292,23.56735144864075,336.13381188188737)" fill="#1891ac"><path d="M8.0762 20.19531 c-4.1504 0 -7.2168 -2.8223 -7.2168 -7.2559 s3.0664 -7.2461 7.2168 -7.2461 c3.1445 0 5.6641 1.6113 6.6699 4.2871 l-2.7344 0.99609 c-0.625 -1.6406 -2.1191 -2.5879 -3.9355 -2.5879 c-2.4316 0 -4.2969 1.6992 -4.2969 4.5508 s1.8652 4.5605 4.2969 4.5605 c1.8164 0 3.3105 -0.95703 3.9355 -2.5977 l2.7344 0.99609 c-1.0059 2.6758 -3.5254 4.2969 -6.6699 4.2969 z M27.00435078125 20 l-3.6719 -6.2109 l-0.84961 0 l0 6.2109 l-2.9297 0 l0 -14.111 l5.1172 0 c3.1934 0 4.541 1.8848 4.541 4.2188 c0 1.8945 -1.0742 3.125 -2.9883 3.5352 l4.248 6.3574 l-3.4668 0 z M22.48295078125 8.32 l0 3.3691 l1.7285 0 c1.5625 0 2.1973 -0.66406 2.1973 -1.6797 c0 -1.0059 -0.63477 -1.6895 -2.1973 -1.6895 l-1.7285 0 z M43.2082421875 8.467 l-5.2344 0 l0 3.2031 l4.6387 0 l0 2.5488 l-4.6387 0 l0 3.1934 l5.2344 0 l0 2.5879 l-8.1836 0 l0 -14.111 l8.1836 0 l0 2.5781 z M58.074199218749996 20 l-1.0254 -2.9102 l-5.9277 0 l-1.0254 2.9102 l-2.998 0 l5.1953 -14.111 l3.584 0 l5.1953 14.111 l-2.998 0 z M51.97999921875 14.6387 l4.209 0 l-2.0996 -5.9863 z M73.77953125 5.888999999999999 l0 2.5781 l-3.3496 0 l0 11.533 l-2.9004 0 l0 -11.533 l-3.3691 0 l0 -2.5781 l9.6191 0 z M86.58470703125 8.467 l-5.2344 0 l0 3.2031 l4.6387 0 l0 2.5488 l-4.6387 0 l0 3.1934 l5.2344 0 l0 2.5879 l-8.1836 0 l0 -14.111 l8.1836 0 l0 2.5781 z M93.3935640625 20.19531 c-0.86914 0 -1.6016 -0.72266 -1.6016 -1.6016 s0.73242 -1.6211 1.6016 -1.6211 c0.88867 0 1.6211 0.74219 1.6211 1.6211 s-0.73242 1.6016 -1.6211 1.6016 z M114.707059375 20.19531 c-4.1504 0 -7.2168 -2.8223 -7.2168 -7.2559 s3.0664 -7.2461 7.2168 -7.2461 c3.1445 0 5.6641 1.6113 6.6699 4.2871 l-2.7344 0.99609 c-0.625 -1.6406 -2.1191 -2.5879 -3.9355 -2.5879 c-2.4316 0 -4.2969 1.6992 -4.2969 4.5508 s1.8652 4.5605 4.2969 4.5605 c1.8164 0 3.3105 -0.95703 3.9355 -2.5977 l2.7344 0.99609 c-1.0059 2.6758 -3.5254 4.2969 -6.6699 4.2969 z M132.43411015625 20.19531 c-4.1504 0 -7.2168 -2.832 -7.2168 -7.2559 c0 -4.4336 3.0664 -7.2461 7.2168 -7.2461 c4.1406 0 7.207 2.8125 7.207 7.2461 c0 4.4238 -3.0664 7.2559 -7.207 7.2559 z M132.43411015625 17.5098 c2.4316 0 4.2969 -1.709 4.2969 -4.5703 c0 -2.8516 -1.8652 -4.5508 -4.2969 -4.5508 s-4.2969 1.6992 -4.2969 4.5508 c0 2.8613 1.8652 4.5703 4.2969 4.5703 z M154.3800390625 5.888999999999999 l2.9199 0 l0 14.111 l-3.3887 0 l-6.25 -10.088 l0 10.088 l-2.9199 0 l0 -14.111 l3.3496 0 l6.2891 10.029 l0 -10.029 z M172.99576171875 5.888999999999999 l2.9199 0 l0 14.111 l-3.3887 0 l-6.25 -10.088 l0 10.088 l-2.9199 0 l0 -14.111 l3.3496 0 l6.2891 10.029 l0 -10.029 z M190.156484375 8.467 l-5.2344 0 l0 3.2031 l4.6387 0 l0 2.5488 l-4.6387 0 l0 3.1934 l5.2344 0 l0 2.5879 l-8.1836 0 l0 -14.111 l8.1836 0 l0 2.5781 z M201.82864140625 20.19531 c-4.1504 0 -7.2168 -2.8223 -7.2168 -7.2559 s3.0664 -7.2461 7.2168 -7.2461 c3.1445 0 5.6641 1.6113 6.6699 4.2871 l-2.7344 0.99609 c-0.625 -1.6406 -2.1191 -2.5879 -3.9355 -2.5879 c-2.4316 0 -4.2969 1.6992 -4.2969 4.5508 s1.8652 4.5605 4.2969 4.5605 c1.8164 0 3.3105 -0.95703 3.9355 -2.5977 l2.7344 0.99609 c-1.0059 2.6758 -3.5254 4.2969 -6.6699 4.2969 z M221.4894921875 5.888999999999999 l0 2.5781 l-3.3496 0 l0 11.533 l-2.9004 0 l0 -11.533 l-3.3691 0 l0 -2.5781 l9.6191 0 z M227.49756796875 20.19531 c-0.86914 0 -1.6016 -0.72266 -1.6016 -1.6016 s0.73242 -1.6211 1.6016 -1.6211 c0.88867 0 1.6211 0.74219 1.6211 1.6211 s-0.73242 1.6016 -1.6211 1.6016 z M248.81106328125 20.19531 c-4.1504 0 -7.2168 -2.8223 -7.2168 -7.2559 s3.0664 -7.2461 7.2168 -7.2461 c3.1445 0 5.6641 1.6113 6.6699 4.2871 l-2.7344 0.99609 c-0.625 -1.6406 -2.1191 -2.5879 -3.9355 -2.5879 c-2.4316 0 -4.2969 1.6992 -4.2969 4.5508 s1.8652 4.5605 4.2969 4.5605 c1.8164 0 3.3105 -0.95703 3.9355 -2.5977 l2.7344 0.99609 c-1.0059 2.6758 -3.5254 4.2969 -6.6699 4.2969 z M269.7319140625 20 l-1.0254 -2.9102 l-5.9277 0 l-1.0254 2.9102 l-2.998 0 l5.1953 -14.111 l3.584 0 l5.1953 14.111 l-2.998 0 z M263.6377140625 14.6387 l4.209 0 l-2.0996 -5.9863 z M283.12254609375 5.888999999999999 c2.7637 0 4.4824 2.0508 4.4824 4.5605 c0 2.5684 -1.7188 4.4922 -4.4824 4.4922 l-2.9395 0 l0 5.0586 l-2.9297 0 l0 -14.111 l5.8691 0 z M282.63424609375 12.4902 c1.4648 0 2.1484 -0.81055 2.1484 -2.0801 c0 -1.2207 -0.68359 -2.0703 -2.1484 -2.0703 l-2.4512 0 l0 4.1504 l2.4512 0 z M300.65453125 5.888999999999999 l0 2.5781 l-3.3496 0 l0 11.533 l-2.9004 0 l0 -11.533 l-3.3691 0 l0 -2.5781 l9.6191 0 z M305.27590703125 20 l0 -14.111 l2.9297 0 l0 14.111 l-2.9297 0 z M323.2277578125 5.888999999999999 l3.1152 0 l-5.2148 14.111 l-3.2227 0 l-5.1855 -14.111 l3.1055 0 l3.7012 10.693 z M340.31052734375 20 l-1.0254 -2.9102 l-5.9277 0 l-1.0254 2.9102 l-2.998 0 l5.1953 -14.111 l3.584 0 l5.1953 14.111 l-2.998 0 z M334.21632734375 14.6387 l4.209 0 l-2.0996 -5.9863 z M356.015859375 5.888999999999999 l0 2.5781 l-3.3496 0 l0 11.533 l-2.9004 0 l0 -11.533 l-3.3691 0 l0 -2.5781 l9.6191 0 z M368.82103515625 8.467 l-5.2344 0 l0 3.2031 l4.6387 0 l0 2.5488 l-4.6387 0 l0 3.1934 l5.2344 0 l0 2.5879 l-8.1836 0 l0 -14.111 l8.1836 0 l0 2.5781 z"></path></g>
			</g>
		</svg>
	